<svg width="71" height="48" viewBox="0 0 71 48" fill="none" xmlns="http://www.w3.org/2000/svg">
<path d="M3.043 47.0194L3.56036 46.8969L70.9892 15.6289V6.49671C70.9892 4.77368 70.3095 3.12121 69.0995 1.90284C67.8896 0.684473 66.2486 0 64.5375 0H46.3793L1.41992 45.5791C1.87701 46.1474 2.42567 46.6343 3.043 47.0194V47.0194Z" fill="#ED5565"/>
<path d="M6.45175 0.0300293C4.74064 0.0300293 3.09961 0.714502 1.88967 1.93287C0.679736 3.15124 0 4.80371 0 6.52674V41.5334C0 42.4681 0.199842 43.3915 0.588367 44.2404L23.6057 0.0300293H6.45175Z" fill="#4758A9"/>
<path d="M24.5693 0.0307617H23.6056L0.578125 44.2411C0.720145 44.5537 0.88651 44.854 1.07519 45.14C1.18678 45.3034 1.29837 45.4567 1.4201 45.6099L46.3794 0.0307617H24.5693Z" fill="#FFCE54"/>
<path d="M70.9992 30.5631V15.6187L3.57031 46.8866L70.9992 30.5631Z" fill="white"/>
<path d="M3.57119 46.8865L3.15527 47.0806C4.15126 47.6821 5.29079 47.9999 6.45216 48H64.5483C66.2594 48 67.9004 47.3155 69.1104 46.0971C70.3203 44.8787 71.0001 43.2263 71.0001 41.5032V30.5732L3.57119 46.8865Z" fill="#57A863"/>
</svg>
