<svg width="71" height="48" viewBox="0 0 71 48" fill="none" xmlns="http://www.w3.org/2000/svg"><path d="M65.682 48H5.318a5.236 5.236 0 01-3.76-1.607A5.578 5.578 0 010 42.513V32h71v10.512c0 1.456-.56 2.852-1.558 3.88A5.236 5.236 0 0165.682 48z" fill="#464655"/><path d="M0 5.488c0-.721.138-1.435.405-2.1a5.502 5.502 0 011.153-1.78A5.31 5.31 0 013.283.417 5.176 5.176 0 015.318 0h60.364c.698 0 1.39.142 2.035.418.645.276 1.231.68 1.725 1.19.494.509.886 1.114 1.153 1.78a5.64 5.64 0 01.405 2.1V16H0V5.488z" fill="#FFE15A"/><path d="M0 32.001h71v-16H0v16z" fill="#FF4B55"/></svg>
