<svg width="71" height="48" viewBox="0 0 71 48" fill="none" xmlns="http://www.w3.org/2000/svg"><path d="M64.54 0H6.46C4.75 0 3.109.684 1.899 1.903a6.52 6.52 0 00-1.89 4.594v18.019H71V6.496A6.5 6.5 0 0069.107 1.9 6.446 6.446 0 0067.012.492 6.41 6.41 0 0064.54 0z" fill="#F5F5F5"/><path d="M0 41.503a6.52 6.52 0 001.89 4.594A6.427 6.427 0 006.45 48h58.09c1.71 0 3.351-.684 4.56-1.903a6.52 6.52 0 001.89-4.594V24.516H0v16.987z" fill="#ED5565"/><path d="M1.937 1.87A6.479 6.479 0 00.508 3.991c-.33.797-.5 1.652-.498 2.515v35.007c0 .872.176 1.735.516 2.537.34.802.837 1.527 1.461 2.13l23.376-21.665L1.937 1.869z" fill="#4758A9"/></svg>
