<svg width="71" height="48" viewBox="0 0 71 48" fill="none" xmlns="http://www.w3.org/2000/svg"><path d="M65.088.082H5.962a6.715 6.715 0 00-3.865 1.863A6.794 6.794 0 00.132 5.778v36.465a6.79 6.79 0 002.267 4.119A6.706 6.706 0 006.784 48h57.483a6.71 6.71 0 004.761-1.985A6.802 6.802 0 0071 41.222V6.809a6.805 6.805 0 00-1.69-4.49A6.72 6.72 0 0065.088.081z" fill="#4658A9"/><path d="M25.339.04H6.681a6.71 6.71 0 00-4.715 2.01A6.802 6.802 0 00.02 6.818V24.5h25.35L25.338.04z" fill="#4658A9"/><path d="M10.707 17.803V24.5h3.955v-6.85l6.803 6.85h3.874v-3.062l-7.098-7.146h7.098v-4.084h-7.098l7.098-7.145V0h-3.884l-6.793 6.84V0h-3.955v6.697L4.461.408A6.767 6.767 0 00.78 3.644l6.5 6.544H.02v4.083h7.26l-7.26 7.31v2.889h4.056l6.631-6.666z" fill="#fff"/><path d="M11.722 15.006v9.504h1.926v-9.658L23.2 24.5h2.11v-1.276l-9.917-9.983h9.916v-1.97h-9.917l9.917-9.985V.04H23.2l-9.582 9.647V.04h-1.927v9.494L3.245 1.02A6.778 6.778 0 001.46 2.602l8.609 8.667H0v1.99h10.069L0 23.398v1.113h2.261l9.46-9.504z" fill="#EC5463"/><path d="M42.294 13.19c-.325.234-.517.101-.416-.297l.355-1.46a1.337 1.337 0 00-.375-1.194l-1.014-.929c-.304-.265-.223-.49.172-.5h1.48a1.06 1.06 0 00.923-.725l.467-1.603c.111-.388.314-.398.446 0l.558 1.572a1.122 1.122 0 001.014.695h1.51c.396 0 .477.224.173.49l-1.146 1.02a1.269 1.269 0 00-.345 1.185l.365 1.286c.112.388-.07.53-.415.326l-1.227-.765a1.17 1.17 0 00-1.207 0l-1.318.898zm12.168 4.083c-.325.234-.517.102-.416-.296l.355-1.46a1.335 1.335 0 00-.375-1.195l-1.014-.929c-.304-.265-.223-.49.172-.5h1.48a1.06 1.06 0 00.923-.725l.467-1.602c.111-.388.314-.399.446 0l.558 1.572a1.122 1.122 0 001.014.694h1.51c.396 0 .477.224.173.49l-1.146 1.02a1.267 1.267 0 00-.345 1.185l.365 1.286c.112.388-.07.531-.415.327l-1.227-.766a1.17 1.17 0 00-1.207 0l-1.318.899zM36.21 24.419c-.325.234-.517.102-.416-.297l.355-1.46a1.336 1.336 0 00-.375-1.194l-1.014-.929c-.304-.265-.223-.49.172-.5h1.48a1.061 1.061 0 00.924-.725l.466-1.602c.111-.388.314-.399.446 0l.558 1.572a1.121 1.121 0 001.014.694h1.51c.396 0 .477.224.173.49l-1.146 1.02a1.266 1.266 0 00-.345 1.185l.365 1.286c.112.388-.07.53-.415.327l-1.227-.766a1.17 1.17 0 00-1.207 0l-1.318.899zM11.326 40.72c-.415.296-.659.133-.537-.377l.446-1.879a1.717 1.717 0 00-.486-1.531l-1.37-1.194c-.385-.337-.283-.623.224-.644l1.916-.05a1.363 1.363 0 001.197-.93l.598-2.041c.142-.5.405-.51.578 0l.72 2.041a1.448 1.448 0 001.247.899h1.947c.507 0 .618.286.233.633l-1.48 1.306a1.625 1.625 0 00-.447 1.532l.477 1.653c.142.5-.101.684-.537.409l-1.582-1.021a1.523 1.523 0 00-1.552 0l-1.591 1.194zm39.597-11.168c-.233.164-.365.072-.304-.204l.253-1.02a.956.956 0 00-.273-.848l-.761-.664c-.213-.183-.162-.347.122-.357h1.014a.758.758 0 00.659-.52l.334-1.144c.081-.275.224-.286.325 0l.405 1.123a.807.807 0 00.69.5h1.085c.284 0 .345.164.132.347l-.822.725a.901.901 0 00-.162.837l.264.92c.081.275-.05.377-.294.234l-.882-.551a.847.847 0 00-.862 0l-.923.622z" fill="#fff"/></svg>