<svg width="71" height="48" viewBox="0 0 71 48" fill="none" xmlns="http://www.w3.org/2000/svg"><path d="M30.598 0h-3.173v14.63L2.078 1.86A6.786 6.786 0 00.051 6.192L19.517 16H12.42L.02 9.757v1.809l8.851 4.454H.021v3.198h30.607L30.598 0zM68.78 46.192a6.783 6.783 0 002.149-4.281L51.24 32h7.097l12.633 6.365v-1.788L61.845 32h9.125v-3.198H40.159V48h3.173V33.37L68.78 46.191zM43.302 0h-3.143v19.198H71V16h-9.125L71 11.423V6.069l-19.7 9.92h-7.096L69.925 3.025a6.814 6.814 0 00-1.013-1.256L43.302 14.63V0zM0 28.792V32h8.85L0 36.455v5.343l19.466-9.808h7.097L1.034 44.853c.287.462.627.887 1.014 1.267l25.346-12.761v14.63h3.174V28.793H0z" fill="#fff"/><path d="M70.97 28.792v-9.594H40.128V0h-9.53v19.198H0v9.594h30.598V47.99h9.53V28.792H70.97z" fill="#EC5565"/><path d="M19.485 16L.02 6.19v3.556l12.399 6.243 7.066.01zm31.754 0l19.7-9.921a6.776 6.776 0 00-1.075-3.065L44.142 15.979l7.097.02zm0 16l19.69 9.92a6.936 6.936 0 000-.715v-2.84L58.335 32H51.24zm-31.753 0L.02 41.808a6.779 6.779 0 001.013 3.065L26.593 32h-7.108z" fill="#EC5565"/><path d="M43.302 14.63L68.81 1.779A6.678 6.678 0 0064.917 0H43.302v14.63zM70.97 36.568V31.99h-9.084l9.084 4.577zm0-20.567v-4.577L61.886 16h9.084zM2.099 46.12a6.674 6.674 0 004.633 1.87h20.693V33.359L2.099 46.12zm41.203-12.761v14.63h20.936a6.674 6.674 0 004.542-1.787L43.302 33.359zM27.425 0H6.053a6.68 6.68 0 00-3.975 1.86l25.347 12.77V0zM0 31.99v4.454l8.84-4.454H0zm0-20.455V16h8.84L0 11.535z" fill="#4658A9"/></svg>