<svg width="71" height="48" viewBox="0 0 71 48" fill="none" xmlns="http://www.w3.org/2000/svg"><path d="M64.55 0H6.45C2.889 0 0 2.908 0 6.495v35.01C0 45.092 2.888 48 6.45 48h58.1c3.562 0 6.45-2.908 6.45-6.495V6.495C71 2.908 68.112 0 64.55 0z" fill="#4758A9"/><path d="M13.185 0h37.53v48L13.184 0z" fill="#F6D660"/><path d="M7.395 4.851c-.274-.082-.284-.245 0-.368l1.014-.449a.946.946 0 00.497-.745V2.267c0-.286.172-.337.355-.122l.68.817a.756.756 0 00.811.204l1.095-.44c.264-.112.366 0 .203.246l-.629 1.021a.811.811 0 000 .858l.66.868c.172.225.08.368-.193.317l-1.075-.204a.887.887 0 00-.812.326l-.557.776c-.173.235-.335.195-.366-.091L8.967 5.82a.86.86 0 00-.558-.664l-1.014-.306zm4.382 5.617c-.274-.082-.284-.245 0-.367l1.014-.45a.936.936 0 00.497-.745V7.884c0-.286.172-.337.355-.122l.68.817a.756.756 0 00.81.204l1.096-.44c.264-.101.355 0 .203.246l-.629 1.021a.811.811 0 000 .858l.66.868c.172.225.08.368-.193.317l-1.075-.205a.888.888 0 00-.812.327l-.558.777c-.172.234-.334.194-.365-.092l-.122-1.022a.86.86 0 00-.557-.664l-1.005-.306zm4.391 5.617c-.273-.082-.284-.245 0-.368l1.015-.449a.935.935 0 00.497-.745V13.5c0-.286.172-.337.355-.122l.68.827a.756.756 0 00.81.204l1.096-.439c.264-.112.355 0 .203.245l-.629 1.022a.811.811 0 000 .857l.66.868c.172.225.08.368-.193.317l-1.075-.204a.887.887 0 00-.812.327l-.558.776c-.162.235-.334.194-.365-.092l-.111-1.021a.86.86 0 00-.558-.664l-1.015-.317zm4.392 5.617c-.274-.082-.284-.245 0-.368l1.015-.449a.935.935 0 00.497-.745v-1.022c0-.286.172-.337.355-.122l.679.827a.756.756 0 00.811.204l1.096-.439c.264-.102.355 0 .203.245l-.63 1.022a.811.811 0 000 .857l.66.868c.173.225.081.368-.192.317l-1.076-.204a.885.885 0 00-.811.327l-.558.776c-.172.235-.335.194-.365-.092l-.122-1.021a.85.85 0 00-.558-.664l-1.004-.317zm4.392 5.617c-.274-.081-.284-.245 0-.367l1.014-.45a.947.947 0 00.497-.745v-1.022c0-.286.173-.337.355-.122l.68.827a.756.756 0 00.811.204l1.096-.439c.264-.112.355 0 .203.245l-.63 1.021a.81.81 0 000 .858l.66.869c.172.224.081.367-.193.316l-1.075-.204a.888.888 0 00-.811.327l-.558.776c-.173.235-.335.194-.365-.092l-.122-1.021a.85.85 0 00-.558-.664l-1.004-.317zm4.392 5.617c-.274-.081-.284-.245 0-.367l1.014-.45a.945.945 0 00.497-.745v-1.022c0-.286.173-.337.355-.122l.68.827a.756.756 0 00.811.204l1.096-.439c.263-.112.355 0 .203.245l-.63 1.022a.811.811 0 000 .857l.66.869c.172.224.081.367-.193.316l-1.075-.204a.888.888 0 00-.811.327l-.558.776c-.173.235-.335.194-.365-.092l-.122-1.021a.86.86 0 00-.558-.664l-1.004-.317zm4.392 5.627c-.274-.081-.284-.245 0-.367l1.014-.45a.945.945 0 00.497-.745V35.98c0-.286.172-.348.355-.123l.68.827a.756.756 0 00.811.205l1.095-.44c.264-.112.355 0 .203.245l-.628 1.022a.811.811 0 000 .858l.659.868c.172.224.08.367-.193.316l-1.075-.204a.887.887 0 00-.812.327l-.557.776c-.173.235-.335.194-.365-.092l-.122-1.021a.861.861 0 00-.558-.664l-1.004-.317zm3.763 4.81c-.274-.081-.284-.244 0-.367l1.014-.45a.945.945 0 00.497-.745V40.79c0-.286.172-.337.355-.123l.68.828a.756.756 0 00.811.204l1.096-.44c.263-.112.355 0 .212.246l-.628 1.021a.811.811 0 000 .858l.659.868c.172.225.091.368-.193.316l-1.075-.204a.885.885 0 00-.811.327l-.558.776c-.163.235-.335.194-.365-.092l-.122-1.02a.86.86 0 00-.558-.665l-1.014-.316z" fill="#fff"/></svg>