<svg width="71" height="48" viewBox="0 0 71 48" fill="none" xmlns="http://www.w3.org/2000/svg"><path d="M6.185 48h58.662a6.714 6.714 0 003.215-1.127 6.775 6.775 0 002.258-2.564H.701a6.774 6.774 0 002.263 2.567A6.714 6.714 0 006.184 48z" fill="#ED5565"/><path d="M0 40.608v1.37c.089.81.323 1.596.69 2.321H70.3a6.77 6.77 0 00.69-2.32v-1.37H0z" fill="#fff"/><path d="M0 36.918h71v3.69H0v-3.69z" fill="#ED5565"/><path d="M0 33.227h71v3.69H0v-3.69z" fill="#fff"/><path d="M0 29.536h71v3.69H0v-3.69z" fill="#ED5565"/><path d="M0 25.846h71v3.69H0v-3.69z" fill="#fff"/><path d="M0 22.154h71v3.691H0v-3.69z" fill="#ED5565"/><path d="M0 18.464h71v3.69H0v-3.69z" fill="#fff"/><path d="M0 14.773h71v3.69H0v-3.69z" fill="#ED5565"/><path d="M0 11.072h71v3.691H0v-3.69z" fill="#fff"/><path d="M0 7.381h71v3.691H0v-3.69z" fill="#ED5565"/><path d="M71 7.382v-1.37a6.772 6.772 0 00-.69-2.331H.7a6.771 6.771 0 00-.69 2.33v1.37H71z" fill="#fff"/><path d="M64.836 0H6.184A6.713 6.713 0 002.97 1.127 6.774 6.774 0 00.711 3.69H70.32a6.773 6.773 0 00-2.263-2.567A6.713 6.713 0 0064.837 0z" fill="#ED5565"/><path d="M33.692 25.845V0H6.183a6.722 6.722 0 00-4.157 1.895A6.806 6.806 0 00.02 6.022v19.823h33.672z" fill="#4A89DC"/><path d="M4.174 3.128l-.275.86h-.893l.72.52-.273.86.72-.532.722.531-.275-.858.721-.522h-.893l-.274-.859zm0 4.335l-.275.859h-.893l.72.532-.273.848.72-.521.722.521-.275-.848.721-.532h-.893l-.274-.859zm0 4.335l-.275.859h-.893l.72.531-.273.86.72-.532.722.531-.275-.859.721-.531h-.893l-.274-.859zm0 4.345l-.275.849h-.893l.72.531-.273.86.72-.532.722.531-.275-.859.721-.531h-.893l-.274-.849zm.274 5.183l-.274-.848-.275.848h-.893l.72.532-.273.859.72-.532.722.532-.275-.859.721-.532h-.893zm2.254-16.03l-.274.859h-.894l.721.531-.274.849.721-.532.731.532-.274-.849.721-.531h-.894l-.284-.86zm0 4.335l-.274.858h-.894l.721.532-.274.849.721-.522.731.522-.274-.849.721-.532h-.894l-.284-.858zm0 4.345l-.274.848h-.894l.721.532-.274.859.721-.532.731.532-.274-.86.721-.53h-.894l-.284-.85zm.284 5.183l-.284-.848-.274.848h-.894l.721.532-.274.858.721-.531.731.531-.274-.858.721-.532h-.894zM9.241 3.13l-.274.858h-.894l.72.522-.273.858.72-.531.722.531-.274-.858.72-.522h-.893l-.274-.859zm0 4.334l-.274.859h-.894l.72.532-.273.848.72-.521.722.521-.274-.848.72-.532h-.893l-.274-.859zm0 4.335l-.274.859h-.894l.72.531-.273.86.72-.532.722.531-.274-.859.72-.531h-.893l-.274-.859zm0 4.345l-.274.849h-.894l.72.531-.273.86.72-.532.722.531-.274-.859.72-.531h-.893l-.274-.849zm.274 5.183l-.274-.848-.274.848h-.894l.72.532-.273.859.72-.532.722.532-.274-.859.72-.532h-.893zm2.254-16.03l-.274.859h-.894l.721.531-.274.849.721-.532.731.532-.274-.849.721-.531h-.893l-.285-.86zm0 4.335l-.274.858h-.894l.721.532-.274.849.721-.522.731.522-.274-.849.721-.532h-.893l-.285-.858zm0 4.345l-.274.848h-.894l.721.532-.274.859.721-.532.731.532-.274-.86.721-.53h-.893l-.285-.85zm.284 5.183l-.284-.848-.274.848h-.894l.721.532-.274.858.721-.531.731.531-.274-.858.721-.532h-.893zm2.255-16.03l-.274.858h-.894l.721.522-.274.858.72-.531.722.531-.274-.858.72-.522h-.893l-.274-.859zm0 4.334l-.274.859h-.894l.721.532-.274.848.72-.521.722.521-.274-.848.72-.532h-.893l-.274-.859zm0 4.335l-.274.859h-.894l.721.531-.274.86.72-.532.722.531-.274-.859.72-.531h-.893l-.274-.859zm0 4.345l-.274.849h-.894l.721.531-.274.86.72-.532.722.531-.274-.859.72-.531h-.893l-.274-.849zm.274 5.183l-.274-.848-.274.848h-.894l.721.532-.274.859.72-.532.722.532-.274-.859.72-.532h-.893zm2.254-16.03l-.274.859h-.894l.721.531-.274.849.721-.532.731.532-.284-.849.731-.531h-.893l-.285-.86zm0 4.335l-.274.858h-.894l.721.532-.274.849.721-.522.731.522-.284-.849.731-.532h-.893l-.285-.858zm0 4.345l-.274.848h-.894l.721.532-.274.859.721-.532.731.532-.284-.86.731-.53h-.893l-.285-.85zm.285 5.183l-.285-.848-.274.848h-.894l.721.532-.274.858.721-.531.731.531-.284-.858.731-.532h-.893zm2.254-16.03l-.274.858h-.894l.721.522-.274.858.72-.531.722.531-.274-.858.72-.522h-.893l-.274-.859zm0 4.334l-.274.859h-.894l.721.532-.274.848.72-.521.722.521-.274-.848.72-.532h-.893l-.274-.859zm0 4.335l-.274.859h-.894l.721.531-.274.86.72-.532.722.531-.274-.859.72-.531h-.893l-.274-.859zm0 4.345l-.274.849h-.894l.721.531-.274.86.72-.532.722.531-.274-.859.72-.531h-.893l-.274-.849zm.274 5.183l-.274-.848-.274.848h-.894l.721.532-.274.859.72-.532.722.532-.274-.859.72-.532h-.893zm2.254-16.03l-.274.859h-.894l.721.531-.274.849.721-.532.731.532-.284-.849.731-.531h-.893l-.285-.86zm0 4.335l-.274.858h-.894l.721.532-.274.849.721-.522.731.522-.284-.849.731-.532h-.893l-.285-.858zm0 4.345l-.274.848h-.894l.721.532-.274.859.721-.532.731.532-.284-.86.731-.53h-.893l-.285-.85zm.285 5.183l-.285-.848-.274.848h-.894l.721.532-.274.858.721-.531.731.531-.284-.858.731-.532h-.893zm2.254-16.03l-.274.858h-.894l.721.522-.274.858.72-.531.722.531-.274-.858.72-.522h-.893l-.274-.859zm0 4.334l-.274.859h-.894l.721.532-.274.848.72-.521.722.521-.274-.848.72-.532h-.893l-.274-.859zm0 4.335l-.274.859h-.894l.721.531-.274.86.72-.532.722.531-.274-.859.72-.531h-.893l-.274-.859zm0 4.345l-.274.849h-.894l.721.531-.274.86.72-.532.722.531-.274-.859.72-.531h-.893l-.274-.849zm.274 5.183l-.274-.848-.274.848h-.894l.721.532-.274.859.72-.532.722.532-.274-.859.72-.532h-.893zm2.254-16.03l-.274.859h-.893l.72.531-.274.849.721-.532.732.532-.285-.849.731-.531h-.893l-.285-.86zm0 4.335l-.274.858h-.893l.72.532-.274.849.721-.522.732.522-.285-.849.731-.532h-.893l-.285-.858zm0 4.345l-.274.848h-.893l.72.532-.274.859.721-.532.732.532-.285-.86.731-.53h-.893l-.285-.85zm.285 5.183l-.285-.848-.274.848h-.893l.72.532-.274.858.721-.531.732.531-.285-.858.731-.532h-.893zm1.807-14.65l-.274.858.721-.531.721.531-.274-.858.72-.522h-.893l-.274-.859-.274.86h-.894l.721.52zm.447 2.954l-.274.859h-.894l.721.532-.274.848.721-.521.721.521-.274-.848.72-.532h-.893l-.274-.859zm0 4.335l-.274.859h-.894l.721.531-.274.86.721-.532.721.531-.274-.859.72-.531h-.893l-.274-.859zm0 4.345l-.274.849h-.894l.721.531-.274.86.721-.532.721.531-.274-.859.72-.531h-.893l-.274-.849zm.274 5.183l-.274-.848-.274.848h-.894l.721.532-.274.859.721-.532.721.532-.274-.859.72-.532h-.893z" fill="#fff"/></svg>