<svg width="71" height="48" viewBox="0 0 71 48" fill="none" xmlns="http://www.w3.org/2000/svg"><path d="M64.43 0H6.439C2.883 0 0 2.908 0 6.495v35.01C0 45.092 2.883 48 6.439 48h57.99c3.557 0 6.44-2.908 6.44-6.495V6.495c0-3.587-2.883-6.495-6.44-6.495z" fill="#039188"/><path d="M0 26.134h71v4.27H0v-4.27z" fill="#fff"/><path d="M0 21.866h71v4.268H0v-4.268z" fill="#434A54"/><path d="M0 17.607h71v4.269H0v-4.27z" fill="#F6BB42"/><path d="M37.803 0h4.232v48h-4.232V0z" fill="#fff"/><path d="M33.571 0h4.232v48h-4.232V0z" fill="#434A54"/><path d="M29.35 0h4.231v48H29.35V0z" fill="#F6BB42"/><path d="M35.505 37.195c7.224 0 13.08-5.908 13.08-13.195s-5.856-13.195-13.08-13.195S22.425 16.713 22.425 24s5.856 13.195 13.08 13.195z" fill="#ED5565"/><path d="M45.274 20.385h.79a.13.13 0 01.114.093.134.134 0 01-.043.142l-.607.449a.134.134 0 000 .143l.232.776a.134.134 0 01-.051.143.13.13 0 01-.151 0l-.658-.46a.13.13 0 00-.152 0l-.699.532a.131.131 0 01-.199-.064.134.134 0 01-.003-.08l.263-.816a.134.134 0 000-.143l-.678-.5a.133.133 0 01.08-.236h.851a.132.132 0 00.122-.092l.253-.735a.133.133 0 01.121-.082.131.131 0 01.122.082l.253.735a.135.135 0 00.04.113zm-19.55 7.23h-.789a.131.131 0 01-.113-.093.134.134 0 01.042-.141l.608-.45a.134.134 0 000-.143l-.233-.776a.134.134 0 01.052-.143.13.13 0 01.15 0l.659.46a.13.13 0 00.151 0l.699-.531a.13.13 0 01.199.063c.009.026.01.053.003.08l-.263.817a.133.133 0 000 .143l.678.5a.132.132 0 01.04.146.132.132 0 01-.12.089h-.851a.13.13 0 00-.121.092l-.254.735a.132.132 0 01-.194.06.132.132 0 01-.049-.06l-.253-.735a.135.135 0 00-.04-.113zm19.753-.745l.628.48a.133.133 0 01-.081.235h-.76a.13.13 0 00-.121.092l-.263.766a.133.133 0 01-.122.081.131.131 0 01-.121-.081l-.264-.756a.133.133 0 00-.121-.092h-.87a.13.13 0 01-.122-.09.134.134 0 01.04-.145l.699-.5a.134.134 0 000-.143l-.253-.807a.134.134 0 01.051-.143.13.13 0 01.151 0l.689.51a.13.13 0 00.151 0l.638-.449a.13.13 0 01.2.064c.008.025.01.053.003.08l-.223.745a.134.134 0 00.07.153zm-19.995-5.74l-.628-.48a.133.133 0 01.081-.235h.76a.13.13 0 00.121-.091l.263-.766a.132.132 0 01.122-.082.13.13 0 01.121.082l.263.755a.132.132 0 00.122.092h.87a.13.13 0 01.122.09.134.134 0 01-.04.145l-.699.5a.134.134 0 000 .143l.253.807a.134.134 0 01-.052.143.131.131 0 01-.15 0l-.689-.51a.13.13 0 00-.152 0l-.638.449a.13.13 0 01-.198-.063.135.135 0 01-.004-.08l.223-.745a.134.134 0 00-.071-.154zm16.452 11.132l.222.766a.134.134 0 01-.051.143.13.13 0 01-.151 0l-.608-.45a.13.13 0 00-.152 0l-.658.47a.131.131 0 01-.199-.063.134.134 0 01-.003-.08l.233-.776a.134.134 0 00-.05-.142l-.72-.501a.132.132 0 01-.056-.15.132.132 0 01.127-.095h.85a.132.132 0 00.121-.092l.264-.807a.133.133 0 01.127-.096.13.13 0 01.126.096l.264.817a.131.131 0 00.122.092h.769a.131.131 0 01.113.094.134.134 0 01-.043.141l-.617.47a.133.133 0 00-.03.163zM29.066 15.78l-.223-.766a.134.134 0 01.052-.143.131.131 0 01.15 0l.608.45a.13.13 0 00.152 0l.658-.47a.13.13 0 01.199.063c.01.025.01.053.003.08l-.232.776a.134.134 0 00.05.143l.719.5a.132.132 0 01.056.15.133.133 0 01-.127.095h-.84a.131.131 0 00-.122.092l-.263.807a.133.133 0 01-.126.096.13.13 0 01-.127-.096l-.263-.817a.133.133 0 00-.122-.092h-.77a.13.13 0 01-.113-.094.134.134 0 01.043-.141l.618-.47a.133.133 0 00.02-.163zm12.24-.5l.648-.45a.131.131 0 01.206.069.133.133 0 01-.004.084l-.233.725a.133.133 0 000 .143l.648.49a.133.133 0 01-.07.235h-.8a.131.131 0 00-.122.092l-.253.848a.132.132 0 01-.206.07.133.133 0 01-.047-.07l-.263-.817a.132.132 0 00-.122-.092h-.84a.132.132 0 01-.114-.093.134.134 0 01.043-.142l.688-.5a.133.133 0 000-.143l-.222-.746a.134.134 0 01.051-.143.13.13 0 01.151 0l.628.45a.132.132 0 00.187.043.132.132 0 00.046-.054zM29.694 32.721l-.648.45a.131.131 0 01-.206-.07.133.133 0 01.003-.084l.233-.725a.133.133 0 000-.143l-.648-.49a.133.133 0 01.07-.235h.8a.132.132 0 00.122-.092l.253-.848a.133.133 0 01.127-.096.131.131 0 01.126.096l.264.817a.133.133 0 00.121.092h.84a.13.13 0 01.114.094.134.134 0 01-.043.141l-.688.5a.134.134 0 000 .144l.223.745a.134.134 0 01-.052.143.13.13 0 01-.151 0l-.628-.45a.132.132 0 00-.12-.065.131.131 0 00-.113.076zm5.416-19.22l.243-.787a.132.132 0 01.121-.082.131.131 0 01.122.082l.233.725a.132.132 0 00.121.092h.81a.131.131 0 01.121.09.134.134 0 01-.04.145l-.638.49a.134.134 0 000 .153l.284.838a.133.133 0 01-.044.153.132.132 0 01-.159 0l-.688-.51a.13.13 0 00-.152 0l-.689.49a.13.13 0 01-.158 0 .133.133 0 01-.044-.154l.263-.817a.134.134 0 000-.143l-.617-.47a.133.133 0 01.08-.234h.77a.132.132 0 00.06-.062zm.78 20.997l-.264.745a.133.133 0 01-.121.082.131.131 0 01-.122-.082l-.233-.725a.131.131 0 00-.121-.092h-.81a.13.13 0 01-.121-.089.134.134 0 01.04-.146l.638-.49a.133.133 0 000-.153l-.284-.837a.133.133 0 01.124-.18c.028 0 .056.009.079.026l.688.511a.13.13 0 00.152 0l.689-.49a.131.131 0 01.206.069.134.134 0 01-.004.084l-.263.817a.133.133 0 000 .143l.617.47a.133.133 0 01-.08.235h-.77a.133.133 0 00-.04.102zm3.442-5.107c.056-.377.04-.762-.051-1.133.035-.343.004-.69-.091-1.021a6.288 6.288 0 00-.648-3.646 10.14 10.14 0 00-1.114-2.043.071.071 0 01.081-.102 1.004 1.004 0 001.174-.28.072.072 0 00-.02-.088 1.485 1.485 0 01-.415-.184.071.071 0 010-.122 1.135 1.135 0 00.314-.25.072.072 0 00-.02-.087 1.472 1.472 0 01-.405-.184.072.072 0 010-.122 1.181 1.181 0 00.263-.23.073.073 0 000-.062.071.071 0 00-.02-.025 1.96 1.96 0 01-.597-.306.071.071 0 01-.02-.088.071.071 0 01.02-.025 1.224 1.224 0 00.222-.198.072.072 0 00-.02-.088 1.592 1.592 0 01-.456-.214.071.071 0 01-.044-.067.072.072 0 01.044-.066h.213a.07.07 0 00.045-.066.072.072 0 00-.045-.067c-.628-.357-1.387-1.246-1.863-1.48a1.91 1.91 0 00-1.893.102c-.2.163-.33.396-.364.653a.071.071 0 01-.051.051h-.162c-.425.092-.688.47-.364 1.328a.07.07 0 00.065.045.07.07 0 00.066-.045c.026-.067.056-.132.091-.194a.07.07 0 01.091 0 .604.604 0 00.517 0 .816.816 0 00.202-.102.071.071 0 01.071 0 .071.071 0 01.016.078.071.071 0 01-.016.024.39.39 0 00-.05.184.406.406 0 00-.183.326.408.408 0 00-.142.307 6.502 6.502 0 00-.647 3.482 5.322 5.322 0 001.437 3.34c.022.092.053.18.091.265-.02.154-.02.307 0 .46 0 .46.253.797.456.786.018.214.084.42.192.603a.072.072 0 010 .092c-.146.085-.274.2-.374.337a.07.07 0 01-.051 0h-1.286c-.182 0-.07-.235-.212-.48a.778.778 0 00-.962-.174c-.324.184-.071.521-.628.572a.07.07 0 00-.052.032.073.073 0 00-.009.06c.122.29.293.557.507.787.87.096 1.747.127 2.622.091a.07.07 0 01.05 0 1.014 1.014 0 001.013.44h.06a.483.483 0 00.416 0 .07.07 0 01.06 0c.121.045.254.045.375 0h.05c.1.023.204.023.304 0a.07.07 0 01.071 0c.122.245.253.388.375.367.131.398.263.633.395.613.131-.02.222-.235.293-.623h.05c.203 0 .365-.378.467-.96a.071.071 0 01.06-.061h.112a.575.575 0 000-.746v-.418a.072.072 0 01.065-.046.07.07 0 01.066.046l.142.326a.148.148 0 00-.12.115.152.152 0 00.06.156.147.147 0 00.11.025z" fill="#039188"/></svg>