<svg width="71" height="48" viewBox="0 0 71 48" fill="none" xmlns="http://www.w3.org/2000/svg"><path d="M64.55 0H6.45C2.889 0 0 2.908 0 6.495v35.01C0 45.092 2.888 48 6.45 48h58.1c3.562 0 6.45-2.908 6.45-6.495V6.495C71 2.908 68.112 0 64.55 0z" fill="#FFCE54"/><path d="M5.071 42.894V5.106h8.226v37.788H5.071z" fill="#57A863"/><path d="M13.298 42.894V5.106h8.226v37.788h-8.226z" fill="#FF8416"/><path d="M26.595 42.894V5.106h39.344v37.788H26.595z" fill="#ED5565"/><path d="M60.137 16.514a.734.734 0 00-.568-.398.706.706 0 00-.618.265.603.603 0 00-.153.562 4.352 4.352 0 01-1.308-.899 11.777 11.777 0 00-3.733-2.185 8.242 8.242 0 00-2.85-.154 4.652 4.652 0 00-2.16 1.022 2.104 2.104 0 00-.657 1.532 2.115 2.115 0 00.657 1.532l.152.183-.091.143a1.253 1.253 0 00.05 1.4c.264.357.335.357.396.357.06 0 .223-.286.233-.378a.472.472 0 01.274-.46c.142-.05.254 0 1.167.337a8.463 8.463 0 004.452.082 4.745 4.745 0 012.201 0 1.013 1.013 0 01.63.695 1.028 1.028 0 01-.285.94c-.223.244-.406.357-1.258.592a6.044 6.044 0 01-2.18.163 9.65 9.65 0 00-2.211.123c-.809.131-1.63.159-2.445.081h-1.734l-.345-.47a1.212 1.212 0 01-.183-.52v-.143l.203.122a.202.202 0 00.233 0c.112-.102.092-.265-.121-.776a1.295 1.295 0 01-.071-.398v-.051a.162.162 0 00.162 0c.06-.051.081-.072.122-1.359.04-1.286 0-1.634-.345-2.042l-.071-.092.152-.163c.302-.299.504-.684.578-1.104l.132-.817-.65.613a.548.548 0 01-.486.215.434.434 0 01-.416-.184 2.431 2.431 0 00-1.014-.603.333.333 0 00-.304 0 .244.244 0 00-.092.205c-.032.121-.08.238-.142.347l-.06.102-.183-.184a1.814 1.814 0 00-.72-.46c-.274-.07-.457-.122-.589 0-.131.123-.121.256-.121.43 0 .173-.061.316-.061.316s-.081 0-.294-.173a1.436 1.436 0 00-1.299-.307l-.68.072.163.418c0 .102 0 .123-.07.276a1.015 1.015 0 01-.893.388c-.236-.002-.47.04-.69.123a2.33 2.33 0 01-.588.133l-.477.07a.76.76 0 00-.162-.612.841.841 0 00-.65-.276.798.798 0 00-.68.327 1.182 1.182 0 00-.08 1.022c0 .122.091.316.121.428.16.314.373.597.63.838.21.205.405.424.588.653.105.15.244.272.405.358l.548.306-.06-.48c.072.065.15.123.232.174.132.082.254.153.366.092a.235.235 0 00.101-.215.66.66 0 010-.122c.172.276.365.54.578.786l.142.174a7.416 7.416 0 01-2.525-.715c-.68-.306-.893-.368-1.015-.225a.347.347 0 00-.101.317c.068.225.211.42.406.551a.674.674 0 00-.234.388l-.203.644-.192.602.659-.06c.201-.019.401-.05.598-.093l-.324.603.608-.123a2.5 2.5 0 00.497-.163h.071l.092.133c.05.091.223.357.446.306.223-.051.203-.133.233-.306l.051.112c.183.398.365.582.558.562.193-.02.193 0 .223-.266a.52.52 0 01.172-.204.253.253 0 01.173-.072s.07.062.101.143c.03.082 0 .317-.77.797a5.084 5.084 0 00-1.709 1.543 5.127 5.127 0 00-.858 2.144 3.485 3.485 0 000 1.256 24.929 24.929 0 00-.933-.95l-1.176-1.154a1.018 1.018 0 00.527-.909.83.83 0 00-.619-.735.938.938 0 00-.385 0c0-.347.06-1.021.091-2.604.081-4.218.386-7.425.791-8.17.102-.184.173-.327.051-.44-.122-.112-.254 0-.588.194a4.342 4.342 0 00-1.4 1.634c-.71 1.348-1.014 3.187-1.014 7.006-.024.8-.007 1.602.05 2.4a.927.927 0 00-.415 0 .81.81 0 00-.65.705 1.027 1.027 0 00.65 1.021c.149.07.305.12.466.153a.328.328 0 00-.081.297.316.316 0 000 .112.344.344 0 00-.172.102c-.071.082-.132.235 0 .5a.509.509 0 00.223.225.368.368 0 00-.102.368c.033.102.102.19.193.245a.411.411 0 000 .245.442.442 0 00.274.429.515.515 0 000 .235l-.132-.061a.454.454 0 00-.467 0 .426.426 0 00-.17.503.43.43 0 00.1.16.82.82 0 00.628.154.717.717 0 01-.142.214l-.284.317.234.326a.841.841 0 010 .93l-.051.061a.498.498 0 00-.477-.225.405.405 0 00-.304.317c-.071.255 0 .398.253.592.156.141.35.23.558.256a.622.622 0 01-.121.122l-.528.409.73.112h.213c.061.225.254.664.457.664s.294-.184.335-.235a.832.832 0 00.152-.429h.213l.74-.102-.548-.44-.111-.101a1.142 1.142 0 00.832-.562.473.473 0 00-.071-.44.477.477 0 00-.457-.152.364.364 0 00-.274.245l-.06-.061a.77.77 0 010-1.022c.212-.245.172-.357-.051-.572a.818.818 0 01-.193-.316h.112a.535.535 0 00.547 0 .368.368 0 00.142-.44.52.52 0 00-.385-.275.486.486 0 00.274-.143c.047.058.101.11.162.153.162.122.162.122.162.797 0 .674 0 .858.193 1.02.193.164.183.174.304.123a.224.224 0 00.122-.235.334.334 0 01.203-.122c.233.179.453.373.66.582.268.286.58.527.922.715h.254c.144-.019.284-.06.416-.123.404-.21.752-.514 1.014-.888.276.195.563.373.862.531.205.143.442.23.69.255.07.245.162.521.263.828.538 1.603.355 2.042-.213 2.4-.192.112-.294.132-.923.132-.628 0-.821 0-1.085.215-.3.303-.492.698-.548 1.123a.257.257 0 00.122.225c.132.071.304 0 .599-.133l.131-.082c.096.12.234.197.386.215a1.01 1.01 0 00.7-.184l.101-.072.071.072c.159.135.36.207.568.204a1.01 1.01 0 00.588-.194l.102-.071c.177.113.38.184.588.204.426.051.487 0 .74-.347a.87.87 0 00.183-.756c0-.163-.06-.429-.06-.592a.97.97 0 010-.164c.097-.05.198-.092.304-.122.217-.073.43-.158.639-.256.162-.091.74-.694.74-.919 0-.224-.142-.224-.568-.265-.426-.041-.568-.133-.639-.286-.071-.153 0-.51.294-.95.173-.265.325-.52.467-.776l.284-.062c.152 0 .963-.387 1.633-.694a8.07 8.07 0 013.62-1.021v.286c.08.75.413 1.45.944 1.981a2.688 2.688 0 01.801 2.277v1.022l-.162.153c-.152.143-.172.163-.822.204-.649.041-.79.061-1.014.266a1.166 1.166 0 00-.436.704.36.36 0 000 .327.284.284 0 00.233.092c.19-.031.37-.104.528-.214l.172-.113.102.092a.689.689 0 001.014 0 .64.64 0 00.548.256c.294 0 .446 0 .598-.235l.142.092c.181.13.396.204.619.214a.565.565 0 00.345-.112l.05.05c.152.113.365 0 .64-.163l.141-.092a.579.579 0 00.406.246.858.858 0 00.65-.215l.11-.092.122.092a.88.88 0 00.771.184.65.65 0 00.376-.276c.292.215.656.307 1.014.255a.304.304 0 00.233-.173.678.678 0 00-.132-.531 2.048 2.048 0 01-.476-1.021c0-.348.07-.511.537-.858.467-.348.72-.756.629-1.022a.378.378 0 00-.406-.255c-.203 0-.436-.214-.588-.551-.345-.787-.274-1.665.264-3.166a6.8 6.8 0 00.629-2.952 3.083 3.083 0 00-.224-1.522 5.422 5.422 0 00-.547-1.02l-.213-.297.284-.235a2.142 2.142 0 00.831-1.96 2.203 2.203 0 00-.462-1.026 2.182 2.182 0 00-.907-.66 2.63 2.63 0 00-1.43-.224c-.55.008-1.1.056-1.643.142-.527.083-1.06.128-1.593.133-.77 0-.872 0-1.125-.153-.254-.153-.284-.174-.335-.51a.4.4 0 00-.244-.317c-.213-.072-.618.306-.79.551a1.588 1.588 0 01-.153-.316c-.07-.205-.07-.44.375-.664l.62-.296-.467-.286a1.14 1.14 0 00-.873-.113c-.304.065-.57.249-.74.511l-.05.082-.163-.153a.756.756 0 01-.244-.715.778.778 0 01.538-.542.635.635 0 01.477 0 .183.183 0 01.091.113c.081.296.284.265.325.255.273-.051.436-.541.385-.909v-.123c.398.082.756.299 1.014.613a1.16 1.16 0 010 1.144l-.395.654.629-.123c.408-.085.77-.322 1.014-.664a1.57 1.57 0 00.07-1.327c.258.11.466.31.59.561a.567.567 0 01.06.562 1.834 1.834 0 01-.223.5c-.102.133-.183.246-.122.368a.234.234 0 00.223.112c.333-.04.644-.182.893-.408.111-.135.2-.286.264-.45.237.343.568.61.953.767.456.194.629.214.71.071.081-.143-.081-.286-.142-.337a2.14 2.14 0 01-.264-.623c.223.164.589.46 1.015.858a2.436 2.436 0 001.775.827 1.15 1.15 0 001.014-.53 1.022 1.022 0 00.314-1.114zm-25.499 11.55a.667.667 0 00.264-.07c.021.026.05.047.081.06a1.003 1.003 0 00-.264 0l-.08.01zm21.148 6.128a2.227 2.227 0 00-1.217.633 2.619 2.619 0 00-.122-.54c-.142-.44-.101-.675.457-1.339.08-.092.476-.572.476-.786a.308.308 0 00-.08-.235c-.092-.092-.234-.092-.457-.092s-.305 0-.426-.143c-.122-.143-.254-.378.05-.766l.203-.255.193.122c1.572 1.022 1.572 1.022 1.643 2.125.071 1.103.04 1.133-.72 1.276z" fill="#FFCE54"/></svg>