<svg width="12" height="10" viewBox="0 0 12 10" fill="none" xmlns="http://www.w3.org/2000/svg">
<path d="M11.1 0.882353C9.9 -0.294118 7.92 -0.294118 6.72 0.882353L6 1.58824L5.28 0.882353C4.08 -0.294118 2.1 -0.294118 0.9 0.882353C-0.3 2.05882 -0.3 3.94118 0.9 5.11765L1.62 5.82353L6 10L10.38 5.76471L11.1 5.05882C12.3 3.94118 12.3 2.05882 11.1 0.882353ZM8.94 5.76471L6 8.58824L3.06 5.76471L1.62 4.41176C0.84 3.58824 0.84 2.35294 1.62 1.58824C2.4 0.82353 3.72 0.82353 4.56 1.58824L6 3L7.44 1.58824C8.22 0.82353 9.54 0.82353 10.38 1.58824C11.16 2.35294 11.16 3.64706 10.38 4.41176L8.94 5.76471Z" fill="#192144"/>
</svg>
