<svg width="24" height="21" viewBox="0 0 24 21" fill="none" xmlns="http://www.w3.org/2000/svg"><path d="M19.071 21a4.857 4.857 0 01-2.738-.848 5.01 5.01 0 01-1.815-2.258 5.13 5.13 0 01-.28-2.907c.19-.976.659-1.872 1.348-2.576a4.898 4.898 0 012.524-1.377 4.834 4.834 0 012.847.286c.9.381 1.67 1.026 2.212 1.854a5.107 5.107 0 01-.615 6.35A4.883 4.883 0 0119.071 21zm0-8.313c-.636 0-1.257.193-1.786.554-.528.36-.94.873-1.183 1.472-.244.6-.307 1.26-.183 1.896.124.636.43 1.221.88 1.68.449.459 1.021.771 1.645.898.623.127 1.27.062 1.857-.187a3.229 3.229 0 001.443-1.208 3.33 3.33 0 00-.401-4.142 3.185 3.185 0 00-2.272-.963zM4.928 21a4.857 4.857 0 01-2.738-.848 5.01 5.01 0 01-1.815-2.258 5.129 5.129 0 01-.28-2.907c.19-.976.66-1.872 1.349-2.576a4.898 4.898 0 012.523-1.377 4.834 4.834 0 012.847.286c.901.381 1.67 1.026 2.212 1.854a5.107 5.107 0 01-.614 6.35A4.883 4.883 0 014.928 21zm0-8.313c-.635 0-1.257.193-1.785.554-.529.36-.94.873-1.184 1.472-.243.6-.307 1.26-.183 1.896.124.636.43 1.221.88 1.68.45.459 1.022.771 1.645.898.624.127 1.27.062 1.857-.187a3.23 3.23 0 001.443-1.208 3.33 3.33 0 00-.4-4.142 3.185 3.185 0 00-2.273-.963zM15.428 3.5a1.678 1.678 0 001.215-.513c.16-.163.286-.357.372-.57.085-.213.128-.442.127-.672a1.752 1.752 0 00-.493-1.238A1.66 1.66 0 0015.439 0a1.684 1.684 0 00-1.214.509 1.752 1.752 0 00-.506 1.236 1.782 1.782 0 00.498 1.239 1.712 1.712 0 001.21.516z" fill="#161C35"/><path d="M17.976 7h-2.344a.21.21 0 01-.188-.114l-1.7-3.18a1.685 1.685 0 00-.505-.597 1.642 1.642 0 00-1.482-.238 1.655 1.655 0 00-.659.41l-3.742 3.85a1.8 1.8 0 00-.499 1.225c0 .952.675 1.291.991 1.482 1.527.898 2.602 1.555 3.192 1.92a.216.216 0 01.103.186v3.78c0 .471.355.875.816.899a.843.843 0 00.632-.24.874.874 0 00.266-.633v-4.703a.889.889 0 00-.356-.711l-1.983-1.455a.218.218 0 01-.088-.157.222.222 0 01.057-.171l2.25-2.45a.215.215 0 01.183-.068.211.211 0 01.161.111l1.17 2.154a.844.844 0 00.75.45H18a.84.84 0 00.621-.27.878.878 0 00-.645-1.48z" fill="#161C35"/></svg>