<svg width="30" height="16" viewBox="0 0 30 16" fill="none" xmlns="http://www.w3.org/2000/svg">
<path d="M23.884 16c-.4 0-1.2-.101-2.1-.608-.6-.405-1.2-1.012-1.8-1.519-.4-.405-1.2-1.215-1.4-1.215-.3.101-.499.912-.499 1.62 0 .102 0 .81-.5 1.216-.4.405-1.1.506-1.2.506h-1.9c-.999 0-4.398-.203-7.397-3.038C3.388 9.519.289 3.038.089 2.734c-.1-.506-.2-1.215.2-1.62s1.1-.506 1.4-.506h4.199c.1 0 .6.1 1 .303.4.203.6.71.6.71s.6 1.417 1.5 2.733c1.299 2.026 1.899 2.532 2.099 2.633.2-.405.3-1.721.2-2.936 0-.507-.1-1.114-.3-1.317-.1-.101-.4-.304-.8-.304l-.7-.607c-.1-.71.6-1.215 1.1-1.418.7-.304 1.8-.405 3.1-.405h.699c1.2 0 1.6.101 2.1.203 1.699.405 1.599 1.721 1.599 3.341V5.671c0 .405 0 1.013.1 1.316.2-.1.9-.709 2.1-2.531.8-1.215 1.4-2.532 1.499-2.836.2-.405.6-.911 1.6-.911H28.083c1 0 1.6.304 1.799.911.3.608.2 1.722-2.4 4.658-.4.406-.7.81-1 1.114-.599.71-1.199 1.418-1.199 1.62.1.102.7.608 1.3 1.115 1.5 1.215 2.5 2.329 3 3.139.499.81.399 1.316.299 1.721-.4.912-1.6 1.013-1.9 1.013h-4.099zm-5.3-4.962c.9 0 1.7.81 2.5 1.62.5.507 1 1.013 1.5 1.317.7.405 1.3.405 1.4.405h3.899c.2 0 .4-.102.5-.102 0 0 0-.1-.1-.202-.4-.709-1.4-1.722-2.7-2.734-1.2-1.013-1.8-1.52-1.9-2.228-.1-.81.5-1.418 1.6-2.734.3-.304.6-.71 1-1.114 1.6-1.823 2-2.633 2.1-3.038H23.082c-.2.405-.8 1.823-1.599 3.038-1.9 2.835-2.8 3.24-3.399 3.24-.2 0-.4 0-.6-.1-1-.609-1-1.824-.9-2.836v-.405-1.722c.1-1.721 0-1.721-.4-1.823-.4-.101-.7-.101-1.9-.202h-.699c-.6 0-1.3 0-1.9.101l.3.304c.6.709.6 2.025.6 2.228.1 1.62.1 3.848-1 4.354-.2.101-.4.101-.6.101-.9 0-1.899-.911-3.398-3.341-.8-1.216-1.5-2.735-1.5-2.836l-.1-.101c-.1 0-.2-.101-.3-.101H1.689h-.1c.6 1.215 3.4 6.683 6.498 9.62 2.7 2.531 5.799 2.633 6.399 2.633h1.9s.2-.102.3-.102v-.1c0-.305 0-2.634 1.599-3.039.1-.101.2-.101.3-.101z" fill="#192144"/>
</svg>
