<svg width="19" height="21" viewBox="0 0 19 21" fill="none" xmlns="http://www.w3.org/2000/svg"><path d="M4.75 14.25c0-.414-.155-.768-.464-1.06a1.57 1.57 0 00-1.12-.44c-.436 0-.81.146-1.119.44-.31.292-.464.646-.464 1.06 0 .414.155.768.464 1.06.31.293.683.44 1.12.44.437 0 .81-.146 1.12-.44.308-.292.463-.646.463-1.06zm12.667 0c0-.414-.155-.768-.464-1.06a1.57 1.57 0 00-1.12-.44c-.437 0-.81.146-1.12.44-.308.292-.463.646-.463 1.06 0 .414.155.768.464 1.06.31.293.682.44 1.12.44.436 0 .81-.146 1.119-.44.31-.292.464-.646.464-1.06zm-.57-4.64l-.89-4.5a.788.788 0 00-.78-.61H3.823a.788.788 0 00-.779.61l-.89 4.5a.713.713 0 00.173.62c.156.18.358.27.606.27h13.136c.248 0 .45-.09.606-.27a.713.713 0 00.174-.62zm-2.795-7.172a.529.529 0 00-.173-.399.59.59 0 00-.42-.164H5.541a.59.59 0 00-.42.164.528.528 0 00-.174.398c0 .157.058.29.173.399a.59.59 0 00.42.164h7.917a.59.59 0 00.421-.164.529.529 0 00.173-.398zM19 10.934V18h-1.583v1.5c0 .414-.155.768-.464 1.06a1.57 1.57 0 01-1.12.44c-.437 0-.81-.146-1.12-.44a1.408 1.408 0 01-.463-1.06V18h-9.5v1.5c0 .414-.155.768-.464 1.06a1.57 1.57 0 01-1.12.44 1.57 1.57 0 01-1.119-.44 1.408 1.408 0 01-.464-1.06V18H0v-7.066c0-.875.103-1.746.31-2.614L1.582 3c.075-.61.477-1.145 1.206-1.605C3.52.934 4.468.585 5.634.352 6.801.117 8.09 0 9.5 0c1.41 0 2.699.117 3.866.352 1.166.234 2.115.582 2.845 1.043.73.46 1.132.996 1.206 1.605l1.298 5.32c.19.797.285 1.668.285 2.614z" fill="#161C35"/></svg>