<svg width="16" height="21" fill="none" xmlns="http://www.w3.org/2000/svg"><path d="M8 5C6.385 5 5 6.385 5 8s1.385 3 3 3 3-1.385 3-3-1.385-3-3-3zm0 4.038A1.034 1.034 0 016.962 8c0-.577.461-1.038 1.038-1.038S9.038 7.423 9.038 8 8.577 9.038 8 9.038z" fill="#FFD74B"/><path d="M8.098 0C3.69 0 0 3.5 0 7.9c0 5.1 3.895 7.3 4.716 8.3 2.05 2.4 2.152 4.8 3.28 4.8 1.128 0 1.23-2.4 3.28-4.8.82-1 4.716-3.2 4.716-8.3.205-4.4-3.486-7.9-7.894-7.9zm0 13.1c-2.972 0-5.433-2.4-5.433-5.3s2.46-5.3 5.433-5.3 5.434 2.4 5.434 5.3-2.46 5.3-5.434 5.3z" fill="#FFD74B"/></svg>