<svg width="18" height="21" viewBox="0 0 18 21" fill="none" xmlns="http://www.w3.org/2000/svg">
<path d="M18 19.5472V16.2453C18 15.3207 17.8714 14.3962 17.3571 13.4717C16.8429 12.5472 16.2 11.7547 15.3 11.2264C14.4 10.566 12.4714 10.434 11.5714 10.434L9.51429 12.6792L10.2857 14.3962V18.3585L9 19.8113L7.71428 18.3585V14.3962L8.61428 12.6792L6.42857 10.434C5.4 10.434 3.47143 10.566 2.57143 11.2264C1.67143 11.7547 1.15714 12.5472 0.642857 13.4717C0.128572 14.3962 0 15.1887 0 16.2453V19.5472C0 19.5472 3.34286 21 9 21C14.6571 21 18 19.5472 18 19.5472Z" fill="#132576"/>
<path d="M8.99998 0C6.55712 0 5.14283 2.37736 5.52855 5.01886C5.91426 7.66039 7.19998 9.50945 8.99998 9.50945C10.8 9.50945 12.0857 7.66039 12.4714 5.01886C12.8571 2.24528 11.4428 0 8.99998 0Z" fill="#132576"/>
</svg>
