<svg width="20" height="21" viewBox="0 0 20 21" fill="none" xmlns="http://www.w3.org/2000/svg"><path d="M15.35 4.349a2.184 2.184 0 002.193-2.175C17.543.974 16.561 0 15.35 0a2.184 2.184 0 00-2.193 2.174c0 1.201.982 2.175 2.193 2.175zM14.01 9.75c.25.373.612.659 1.033.82.421.162.883.19 1.321.083l3.636-.9-.53-2.11-3.635.901-1.512-2.247a2.205 2.205 0 00-1.395-.928L8.711 4.53a2.207 2.207 0 00-1.394.179c-.432.21-.782.555-.997.981L4.502 9.297l1.961.973 1.818-3.607 2.157.429-5.576 9.216H0v2.174h4.862a2.21 2.21 0 001.88-1.056l2.103-3.474 5.667 1.124L16.503 21l2.08-.688-1.99-5.923a2.179 2.179 0 00-.63-.943 2.207 2.207 0 00-1.022-.503l-3.332-.66 1.943-3.211.457.679z" fill="#161C35"/></svg>