<svg width="16" height="15" viewBox="0 0 16 15" xmlns="http://www.w3.org/2000/svg">
<path fill-rule="evenodd" clip-rule="evenodd" d="M8 0C5.15 0 2.293.478 1.257 1.431.397 2.221.11 3.62.013 4.503c0 0-.013.088-.013.125 0 .347.3.625.667.625.043 0 1.646-.122 2.613-.197.023-.003.047-.006.07-.012.36-.01.65-.285.65-.625l.003-1.231c0-.382.33-.688.737-.688h6.52c.407 0 .737.306.737.688L12 4.418c0 .341.29.616.65.626.023.006.047.01.07.012.967.075 2.57.197 2.613.197.367 0 .667-.278.667-.625 0-.037-.013-.125-.013-.125-.097-.884-.383-2.281-1.244-3.072C13.707.478 10.85 0 8 0zm0 8.125c-.737 0-1.333.56-1.333 1.25s.596 1.25 1.333 1.25 1.333-.56 1.333-1.25S8.737 8.125 8 8.125zM7 5.312v-.78c0-.432-.373-.782-.833-.782-.46 0-.834.35-.834.781v.781L.837 9.816c-.31.284-.504.68-.504 1.118v1.254c0 .69.597 1.25 1.334 1.25H2v.78c0 .432.373.782.833.782.46 0 .834-.35.834-.781v-.781h8.666v.78c0 .432.373.782.834.782.46 0 .833-.35.833-.781v-.781h.333c.737 0 1.333-.56 1.333-1.25v-1.254c0-.437-.193-.834-.503-1.118l-4.496-4.504v-.78c0-.432-.374-.782-.834-.782-.46 0-.833.35-.833.781v.781H7zm1 1.563c1.473 0 2.667 1.119 2.667 2.5s-1.194 2.5-2.667 2.5c-1.473 0-2.667-1.119-2.667-2.5s1.194-2.5 2.667-2.5z"/>
</svg>
