<svg xmlns="http://www.w3.org/2000/svg">
  <symbol id="flag-australia" viewBox="0 0 71 48">
    <g fill-rule="nonzero" fill="none"><path d="M64.31.33H6A6.64 6.64 0 0 0 .25 5.91v35.72a6.64 6.64 0 0 0 6.56 5.64H63.5a6.64 6.64 0 0 0 6.64-6.64V6.92A6.64 6.64 0 0 0 64.31.33z" fill="#4658A9"/><path d="M25.11.29H6.71A6.64 6.64 0 0 0 .14 6.93v17.32h25L25.11.29z" fill="#4658A9"/><path d="M10.68 17.69v6.56h3.9v-6.71l6.71 6.71h3.82v-3l-7-7h7v-4h-7l7-7v-3h-3.83l-6.7 6.7V.25h-3.9v6.56L4.52.65A6.66 6.66 0 0 0 .89 3.82l6.41 6.41H.14v4H7.3L.14 21.39v2.83h4l6.54-6.53z" fill="#FFF"/><path d="M11.68 14.95v9.31h1.9V14.8L23 24.25h2.08V23l-9.78-9.78h9.78v-1.93H15.3l9.78-9.78V.29H23l-9.45 9.45V.29h-1.9v9.3L3.32 1.25A6.67 6.67 0 0 0 1.56 2.8l8.49 8.49H.12v1.95h9.93L.12 23.17v1.09h2.23l9.33-9.31z" fill="#EC5463"/><path d="M41.83 13.17c-.32.23-.51.1-.41-.29l.35-1.43a1.3 1.3 0 0 0-.37-1.17l-1-.91c-.3-.26-.22-.48.17-.49h1.46a1.05 1.05 0 0 0 .91-.71l.46-1.57c.11-.38.31-.39.44 0l.55 1.54a1.1 1.1 0 0 0 1 .68h1.49c.39 0 .47.22.17.48l-1.13 1a1.24 1.24 0 0 0-.34 1.16l.36 1.26c.11.38-.07.52-.41.32l-1.21-.75a1.16 1.16 0 0 0-1.19 0l-1.3.88zM53.83 17.17c-.32.23-.51.1-.41-.29l.35-1.43a1.3 1.3 0 0 0-.37-1.17l-1-.91c-.3-.26-.22-.48.17-.49h1.46a1.05 1.05 0 0 0 .91-.71l.46-1.57c.11-.38.31-.39.44 0l.55 1.54a1.1 1.1 0 0 0 1 .68h1.49c.39 0 .47.22.17.48l-1.13 1a1.24 1.24 0 0 0-.34 1.16l.36 1.26c.11.38-.07.52-.41.32l-1.21-.75a1.16 1.16 0 0 0-1.19 0l-1.3.88zM35.83 24.17c-.32.23-.51.1-.41-.29l.35-1.43a1.3 1.3 0 0 0-.37-1.17l-1-.91c-.3-.26-.22-.48.17-.49h1.46a1.05 1.05 0 0 0 .91-.71l.46-1.57c.11-.38.31-.39.44 0l.55 1.54a1.1 1.1 0 0 0 1 .68h1.49c.39 0 .47.22.17.48l-1.13 1a1.24 1.24 0 0 0-.34 1.16l.36 1.26c.11.38-.07.52-.41.32l-1.21-.75a1.16 1.16 0 0 0-1.19 0l-1.3.88zM11.29 40.14c-.41.29-.65.13-.53-.37l.44-1.84a1.67 1.67 0 0 0-.48-1.5l-1.35-1.17c-.38-.33-.28-.61.22-.63l1.89-.05a1.35 1.35 0 0 0 1.18-.91l.59-2c.14-.49.4-.5.57 0l.71 2a1.42 1.42 0 0 0 1.23.88h1.92c.5 0 .61.28.23.62l-1.46 1.28a1.59 1.59 0 0 0-.44 1.5l.47 1.62c.14.49-.1.67-.53.4l-1.56-1a1.51 1.51 0 0 0-1.53 0l-1.57 1.17zM50.34 29.2c-.23.16-.36.07-.3-.2l.25-1a.93.93 0 0 0-.27-.83l-.75-.65c-.21-.18-.16-.34.12-.35h1a.75.75 0 0 0 .65-.51l.33-1.12c.08-.27.22-.28.32 0l.4 1.1a.79.79 0 0 0 .68.49h1.07c.28 0 .34.16.13.34l-.81.71A.88.88 0 0 0 53 28l.26.9c.08.27-.05.37-.29.23l-.87-.54a.84.84 0 0 0-.85 0l-.91.61z" fill="#FFF"/></g>
  </symbol>
  <symbol id="flag-belgium" viewBox="0 0 71 48">
    <g fill-rule="nonzero" fill="none"><path d="M7.27.85A6.36 6.36 0 0 0 .91 7.21v34.27a6.36 6.36 0 0 0 6.36 6.36h17v-47l-17 .01z" fill="#434A54"/><path d="M24.25.85v47H47.6v-47H24.25z" fill="#FFCE54"/><path d="M64.54.85H47.59v47h16.95a6.36 6.36 0 0 0 6.36-6.36V7.21A6.36 6.36 0 0 0 64.54.85z" fill="#ED5565"/></g>
  </symbol>
  <symbol id="flag-bosnia" viewBox="0 0 71 48">
    <g fill-rule="nonzero" fill="none"><rect fill="#4758A9" x=".9" y=".13" width="70" height="47" rx="6.36"/><path fill="#F6D660" d="M13.9.13h37v47z"/><path d="M8.19 4.88c-.27-.08-.28-.24 0-.36l1-.44a.93.93 0 0 0 .49-.73v-1c0-.28.17-.33.35-.12l.67.8c.203.22.517.3.8.2l1.08-.43c.26-.11.36 0 .2.24l-.62 1a.79.79 0 0 0 0 .84l.65.85c.17.22.08.36-.19.31l-1.06-.2a.88.88 0 0 0-.8.32l-.55.76c-.17.23-.33.19-.36-.09l-.11-1a.84.84 0 0 0-.55-.65l-1-.3zM12.51 10.38c-.27-.08-.28-.24 0-.36l1-.44a.92.92 0 0 0 .49-.73v-1c0-.28.17-.33.35-.12l.67.8c.203.22.517.3.8.2l1.08-.43c.26-.1.35 0 .2.24l-.62 1a.79.79 0 0 0 0 .84l.65.85c.17.22.08.36-.19.31l-1.06-.2a.88.88 0 0 0-.8.32l-.55.76c-.17.23-.33.19-.36-.09l-.12-1a.84.84 0 0 0-.55-.65l-.99-.3zM16.84 15.88c-.27-.08-.28-.24 0-.36l1-.44a.92.92 0 0 0 .49-.73v-1c0-.28.17-.33.35-.12l.67.81c.203.22.517.3.8.2l1.08-.43c.26-.11.35 0 .2.24l-.62 1a.79.79 0 0 0 0 .84l.65.85c.17.22.08.36-.19.31l-1.06-.2a.88.88 0 0 0-.8.32l-.55.76c-.16.23-.33.19-.36-.09l-.11-1a.84.84 0 0 0-.55-.65l-1-.31zM21.17 21.38c-.27-.08-.28-.24 0-.36l1-.44a.92.92 0 0 0 .49-.73v-1c0-.28.17-.33.35-.12l.67.81c.203.22.517.3.8.2l1.08-.43c.26-.1.35 0 .2.24l-.62 1a.79.79 0 0 0 0 .84l.65.85c.17.22.08.36-.19.31l-1.06-.2a.88.88 0 0 0-.8.32l-.55.76c-.17.23-.33.19-.36-.09l-.12-1a.83.83 0 0 0-.55-.65l-.99-.31zM25.5 26.88c-.27-.08-.28-.24 0-.36l1-.44a.93.93 0 0 0 .49-.73v-1c0-.28.17-.33.35-.12l.67.81c.203.22.517.3.8.2l1.08-.43c.26-.11.35 0 .2.24l-.62 1a.79.79 0 0 0 0 .84l.65.85c.17.22.08.36-.19.31l-1.06-.2a.88.88 0 0 0-.8.32l-.55.76c-.17.23-.33.19-.36-.09l-.12-1a.83.83 0 0 0-.55-.65l-.99-.31zM29.83 32.38c-.27-.08-.28-.24 0-.36l1-.44a.93.93 0 0 0 .49-.73v-1c0-.28.17-.33.35-.12l.67.81c.203.22.517.3.8.2l1.08-.43c.26-.11.35 0 .2.24l-.62 1a.79.79 0 0 0 0 .84l.65.85c.17.22.08.36-.19.31l-1.06-.2a.88.88 0 0 0-.8.32l-.55.76c-.17.23-.33.19-.36-.09l-.12-1a.84.84 0 0 0-.55-.65l-.99-.31zM34.16 37.89c-.27-.08-.28-.24 0-.36l1-.44a.93.93 0 0 0 .49-.73v-1c0-.28.17-.34.35-.12l.67.81c.203.22.517.3.8.2l1.08-.43c.26-.11.35 0 .2.24l-.62 1a.79.79 0 0 0 0 .84l.65.85c.17.22.08.36-.19.31l-1.06-.2a.88.88 0 0 0-.8.32l-.55.76c-.17.23-.33.19-.36-.09l-.12-1a.84.84 0 0 0-.55-.65l-.99-.31zM37.87 42.6c-.27-.08-.28-.24 0-.36l1-.44a.93.93 0 0 0 .49-.73v-1c0-.28.17-.33.35-.12l.67.81c.203.22.517.3.8.2l1.08-.43c.26-.11.35 0 .21.24l-.62 1a.79.79 0 0 0 0 .84l.65.85c.17.22.09.36-.19.31l-1.06-.2a.88.88 0 0 0-.8.32l-.55.76c-.16.23-.33.19-.36-.09l-.12-1a.84.84 0 0 0-.55-.65l-1-.31z" fill="#FFF"/></g>
  </symbol>
  <symbol id="flag-czechia" viewBox="0 0 71 48">
    <path d="M64.54 0H6.46C4.75 0 3.109.684 1.899 1.903a6.52 6.52 0 00-1.89 4.594v18.019H71V6.496A6.5 6.5 0 0069.107 1.9 6.446 6.446 0 0067.012.492 6.41 6.41 0 0064.54 0z" fill="#F5F5F5"/><path d="M0 41.503a6.52 6.52 0 001.89 4.594A6.427 6.427 0 006.45 48h58.09c1.71 0 3.351-.684 4.56-1.903a6.52 6.52 0 001.89-4.594V24.516H0v16.987z" fill="#ED5565"/><path d="M1.937 1.87A6.479 6.479 0 00.508 3.991c-.33.797-.5 1.652-.498 2.515v35.007c0 .872.176 1.735.516 2.537.34.802.837 1.527 1.461 2.13l23.376-21.665L1.937 1.869z" fill="#4758A9"/>
  </symbol>
  <symbol id="flag-dominica" viewBox="0 0 71 48">
    <g fill-rule="nonzero" fill="none"><rect fill="#039188" x=".08" y=".55" width="70" height="47" rx="6.36"/><path fill="#FFF" d="M.08 26.14h70.13v4.18H.08z"/><path fill="#434A54" d="M.08 21.96h70.13v4.18H.08z"/><path fill="#F6BB42" d="M.08 17.79h70.13v4.18H.08z"/><path fill="#FFF" d="M37.42.55h4.18v47h-4.18z"/><path fill="#434A54" d="M33.24.55h4.18v47h-4.18z"/><path fill="#F6BB42" d="M29.07.55h4.18v47h-4.18z"/><circle fill="#ED5565" cx="35.15" cy="24.05" r="12.92"/><path d="M44.8 20.51h.78a.13.13 0 0 1 .07.23l-.6.44a.13.13 0 0 0 0 .14l.23.76a.13.13 0 0 1-.2.14l-.65-.45a.13.13 0 0 0-.15 0l-.69.52a.13.13 0 0 1-.2-.14l.26-.8a.13.13 0 0 0 0-.14l-.67-.49a.13.13 0 0 1 .08-.23h.84a.13.13 0 0 0 .12-.09l.25-.72a.13.13 0 0 1 .24 0l.25.72a.13.13 0 0 0 .04.11zM25.49 27.59h-.78a.13.13 0 0 1-.07-.23l.6-.44a.13.13 0 0 0 0-.14l-.23-.76a.13.13 0 0 1 .2-.14l.65.45a.13.13 0 0 0 .15 0l.69-.52a.13.13 0 0 1 .2.14l-.26.8a.13.13 0 0 0 0 .14l.67.49a.13.13 0 0 1-.08.23h-.84a.13.13 0 0 0-.12.09l-.25.72a.13.13 0 0 1-.24 0l-.25-.72a.13.13 0 0 0-.04-.11zM45 26.86l.62.47a.13.13 0 0 1-.08.23h-.75a.13.13 0 0 0-.12.09l-.26.75a.13.13 0 0 1-.24 0l-.26-.74a.13.13 0 0 0-.12-.09h-.86a.13.13 0 0 1-.08-.23l.69-.49a.13.13 0 0 0 0-.14l-.25-.79a.13.13 0 0 1 .2-.14l.68.5a.13.13 0 0 0 .15 0l.63-.44a.13.13 0 0 1 .2.14l-.22.73a.13.13 0 0 0 .07.15zM25.25 21.24l-.62-.47a.13.13 0 0 1 .08-.23h.75a.13.13 0 0 0 .12-.09l.26-.75a.13.13 0 0 1 .24 0l.26.74a.13.13 0 0 0 .12.09h.86a.13.13 0 0 1 .08.23l-.69.49a.13.13 0 0 0 0 .14l.25.79a.13.13 0 0 1-.2.14l-.68-.5a.13.13 0 0 0-.15 0l-.63.44a.13.13 0 0 1-.2-.14l.22-.73a.13.13 0 0 0-.07-.15zM41.5 32.14l.22.75a.13.13 0 0 1-.2.14l-.6-.44a.13.13 0 0 0-.15 0l-.65.46a.13.13 0 0 1-.2-.14l.23-.76a.13.13 0 0 0-.05-.14l-.71-.49a.13.13 0 0 1 .07-.24h.84a.13.13 0 0 0 .12-.09l.26-.79a.13.13 0 0 1 .25 0l.26.8a.13.13 0 0 0 .12.09h.76a.13.13 0 0 1 .07.23l-.61.46a.13.13 0 0 0-.03.16zM28.79 16l-.22-.75a.13.13 0 0 1 .2-.14l.6.44a.13.13 0 0 0 .15 0l.65-.46a.13.13 0 0 1 .2.14l-.23.76a.13.13 0 0 0 .05.14l.71.49a.13.13 0 0 1-.07.24H30a.13.13 0 0 0-.12.09l-.26.79a.13.13 0 0 1-.25 0l-.26-.8a.13.13 0 0 0-.12-.09h-.76a.13.13 0 0 1-.07-.23l.61-.46a.13.13 0 0 0 .02-.16zM40.88 15.51l.64-.44a.13.13 0 0 1 .2.15l-.23.71a.13.13 0 0 0 0 .14l.64.48a.13.13 0 0 1-.07.23h-.79a.13.13 0 0 0-.12.09l-.25.83a.13.13 0 0 1-.25 0l-.26-.8a.13.13 0 0 0-.12-.09h-.83a.13.13 0 0 1-.07-.23l.68-.49a.13.13 0 0 0 0-.14l-.22-.73a.13.13 0 0 1 .2-.14l.62.44a.13.13 0 0 0 .23-.01zM29.41 32.59l-.64.44a.13.13 0 0 1-.2-.15l.23-.71a.13.13 0 0 0 0-.14l-.64-.48a.13.13 0 0 1 .07-.23h.79a.13.13 0 0 0 .12-.09l.25-.83a.13.13 0 0 1 .25 0l.26.8a.13.13 0 0 0 .12.09h.83a.13.13 0 0 1 .07.23l-.68.49a.13.13 0 0 0 0 .14l.22.73a.13.13 0 0 1-.2.14l-.62-.44a.13.13 0 0 0-.23.01zM34.76 13.77L35 13a.13.13 0 0 1 .24 0l.23.71a.13.13 0 0 0 .12.09h.8a.13.13 0 0 1 .08.23l-.63.48a.13.13 0 0 0 0 .15l.28.82a.13.13 0 0 1-.2.15l-.68-.5a.13.13 0 0 0-.15 0l-.68.48a.13.13 0 0 1-.2-.15l.26-.8a.13.13 0 0 0 0-.14l-.61-.46a.13.13 0 0 1 .08-.23h.76a.13.13 0 0 0 .06-.06zM35.53 34.33l-.26.73a.13.13 0 0 1-.24 0l-.23-.71a.13.13 0 0 0-.12-.09h-.8a.13.13 0 0 1-.08-.23l.63-.48a.13.13 0 0 0 0-.15l-.28-.82a.13.13 0 0 1 .2-.15l.68.5a.13.13 0 0 0 .15 0l.68-.48a.13.13 0 0 1 .2.15l-.26.8a.13.13 0 0 0 0 .14l.61.46a.13.13 0 0 1-.08.23h-.76a.13.13 0 0 0-.04.1zM38.93 29.33a2.86 2.86 0 0 0-.05-1.11 2.62 2.62 0 0 0-.09-1 6.11 6.11 0 0 0-.64-3.57 9.9 9.9 0 0 0-1.1-2 .07.07 0 0 1 .08-.1 1 1 0 0 0 1.14-.25.07.07 0 0 0 0-.11 1.47 1.47 0 0 1-.41-.18.07.07 0 0 1 0-.12 1.12 1.12 0 0 0 .29-.22.07.07 0 0 0 0-.11 1.46 1.46 0 0 1-.4-.18.07.07 0 0 1 0-.12 1.16 1.16 0 0 0 .24-.2.07.07 0 0 0 0-.11 1.94 1.94 0 0 1-.59-.3.07.07 0 0 1 0-.11c.073-.05.14-.106.2-.17a.07.07 0 0 0 0-.11 1.58 1.58 0 0 1-.45-.21.07.07 0 0 1 0-.13h.21a.07.07 0 0 0 0-.13c-.62-.35-1.37-1.22-1.84-1.45a1.9 1.9 0 0 0-1.87.1 1 1 0 0 0-.36.64.07.07 0 0 1-.05.05h-.16c-.42.09-.68.46-.36 1.3a.07.07 0 0 0 .13 0 1.53 1.53 0 0 1 .09-.19.07.07 0 0 1 .09 0 .6.6 0 0 0 .51 0 .81.81 0 0 0 .2-.1.07.07 0 0 1 .07 0 .07.07 0 0 1 0 .1.38.38 0 0 0-.05.18.4.4 0 0 0-.18.32.4.4 0 0 0-.14.3 6.32 6.32 0 0 0-.64 3.41 5.19 5.19 0 0 0 1.42 3.27c.022.09.052.176.09.26-.02.15-.02.3 0 .45 0 .45.25.78.45.77.018.209.083.41.19.59a.07.07 0 0 1 0 .09 1.21 1.21 0 0 0-.37.33.07.07 0 0 1-.05 0h-1.27c-.18 0-.07-.23-.21-.47a.77.77 0 0 0-.95-.17c-.32.18-.07.51-.62.56a.07.07 0 0 0-.06.09c.12.284.289.545.5.77.86.095 1.726.125 2.59.09a.07.07 0 0 1 .05 0 1 1 0 0 0 1 .43h.06a.48.48 0 0 0 .41 0 .07.07 0 0 1 .06 0 .53.53 0 0 0 .37 0h.05a.67.67 0 0 0 .3 0 .07.07 0 0 1 .07 0c.12.24.25.38.37.36.13.39.26.62.39.6.13-.02.22-.23.29-.61h.05c.2 0 .36-.37.46-.94a.07.07 0 0 1 .06-.06h.11a.56.56 0 0 0 0-.73v-.41a.07.07 0 0 1 .13 0l.14.32a.147.147 0 1 0 .05.29z" fill="#039188"/></g>
  </symbol>
  <symbol id="flag-france" viewBox="0 0 71 48">
    <g fill-rule="nonzero" fill="none"><path d="M6.51.11A6.36 6.36 0 0 0 .15 6.47v34.27a6.36 6.36 0 0 0 6.36 6.36h17V.1l-17 .01z" fill="#4758A9"/><path d="M23.49.11v47h23.35v-47H23.49z" fill="#FFF"/><path d="M63.78.11H46.83v47h16.95a6.36 6.36 0 0 0 6.36-6.36V6.48A6.36 6.36 0 0 0 63.78.11z" fill="#ED5565"/></g>
  </symbol>
  <symbol id="flag-germany" viewBox="0 0 71 48">
    <path d="M65.6826 0H5.31737C2.38058 0 0 2.45646 0 5.48687V16H71V5.48687C71 2.45646 68.6194 0 65.6826 0V0Z" fill="#464655"/><path d="M0 42.5131C0 45.5434 2.38058 48 5.31737 48H65.6826C68.6193 48 71 45.5435 71 42.5131V32H0V42.5131Z" fill="#F6BB42"/><path d="M0 15.9997H71V31.9988H0V15.9997Z" fill="#FF4B55"/>
  </symbol>
  <symbol id="flag-seychelles" viewBox="0 0 71 48">
    <g fill-rule="nonzero" fill="none"><path d="M3.88 47l.51-.12 66.47-30.61V7.33A6.36 6.36 0 0 0 64.5.97H46.6L2.28 45.59A6.39 6.39 0 0 0 3.88 47z" fill="#ED5565"/><path d="M7.24 1A6.36 6.36 0 0 0 .88 7.36v34.27c0 .915.197 1.819.58 2.65L24.15 1H7.24z" fill="#4758A9"/><path d="M25.1 1h-.95L1.45 44.28c.14.306.304.6.49.88.11.16.22.31.34.46L46.6 1H25.1z" fill="#FFCE54"/><path fill="#FFF" d="M70.87 30.89V16.26L4.4 46.87z"/><path d="M4.4 46.87l-.41.19a6.32 6.32 0 0 0 3.25.9h57.27a6.36 6.36 0 0 0 6.36-6.36V30.9L4.4 46.87z" fill="#57A863"/></g>
  </symbol>
  <symbol id="flag-sri-lanka" viewBox="0 0 71 48">
    <g fill-rule="nonzero" fill="none"><rect fill="#FFCE54" x=".25" y=".52" width="70" height="47" rx="6.36"/><path fill="#57A863" d="M5.25 42.52v-37h8.11v37z"/><path fill="#FF8416" d="M13.36 42.52v-37h8.11v37z"/><path fill="#ED5565" d="M26.47 42.52v-37h38.79v37z"/><path d="M59.54 16.69a.72.72 0 0 0-.56-.39.7.7 0 0 0-.61.26.59.59 0 0 0-.15.55 4.29 4.29 0 0 1-1.29-.88 11.63 11.63 0 0 0-3.68-2.14 8.18 8.18 0 0 0-2.81-.15 4.6 4.6 0 0 0-2.13 1 2.06 2.06 0 0 0 0 3l.15.18-.09.14a1.22 1.22 0 0 0 .05 1.37c.26.35.33.35.39.35s.22-.28.23-.37a.46.46 0 0 1 .27-.45c.14-.05.25 0 1.15.33a8.4 8.4 0 0 0 4.39.08 4.71 4.71 0 0 1 2.17 0 1 1 0 0 1 .62.68 1 1 0 0 1-.28.92c-.22.24-.4.35-1.24.58a6 6 0 0 1-2.15.16 9.58 9.58 0 0 0-2.18.12 9.48 9.48 0 0 1-2.41.08h-1.71l-.34-.46a1.18 1.18 0 0 1-.18-.51V21l.2.12a.2.2 0 0 0 .23 0c.11-.1.09-.26-.12-.76a1.26 1.26 0 0 1-.07-.39v-.05a.16.16 0 0 0 .16 0c.06-.05.08-.07.12-1.33.04-1.26 0-1.6-.34-2l-.07-.09.15-.16a2 2 0 0 0 .57-1.08l.13-.8-.64.6a.54.54 0 0 1-.48.21.43.43 0 0 1-.41-.18 2.4 2.4 0 0 0-1-.59.33.33 0 0 0-.3 0 .24.24 0 0 0-.09.2 1.44 1.44 0 0 1-.14.34l-.06.1-.18-.18a1.79 1.79 0 0 0-.71-.45c-.27-.07-.45-.12-.58 0-.13.12-.12.25-.12.42 0 .17-.06.31-.06.31s-.08 0-.29-.17a1.42 1.42 0 0 0-1.28-.3l-.67.07.16.41c0 .1 0 .12-.07.27a1 1 0 0 1-.88.38 1.91 1.91 0 0 0-.68.12 2.31 2.31 0 0 1-.58.13l-.47.07a.74.74 0 0 0-.16-.6.83.83 0 0 0-.64-.27.79.79 0 0 0-.67.32 1.15 1.15 0 0 0-.08 1c0 .12.09.31.12.42a3 3 0 0 0 .62.82c.207.201.4.415.58.64.104.146.241.266.4.35l.54.3-.06-.47c.072.063.149.12.23.17.13.08.25.15.36.09a.23.23 0 0 0 .1-.21.65.65 0 0 1 0-.12c.17.27.36.528.57.77l.14.17a7.35 7.35 0 0 1-2.49-.7c-.67-.3-.88-.36-1-.22a.34.34 0 0 0-.1.31 1 1 0 0 0 .4.54.66.66 0 0 0-.23.38l-.2.63-.19.59.65-.06a4.77 4.77 0 0 0 .59-.09l-.32.59.6-.12a2.48 2.48 0 0 0 .49-.16h.07l.09.13c.05.09.22.35.44.3.22-.05.2-.13.23-.3l.05.11c.18.39.36.57.55.55.19-.02.19 0 .22-.26a.51.51 0 0 1 .17-.2.25.25 0 0 1 .17-.07s.07.06.1.14c.03.08 0 .31-.76.78a5 5 0 0 0-2.53 3.61 3.39 3.39 0 0 0 0 1.23c-.21-.23-.5-.52-.92-.93l-1.16-1.13a1 1 0 0 0 .52-.89.81.81 0 0 0-.61-.72.93.93 0 0 0-.38 0c0-.34.06-1 .09-2.55.08-4.13.38-7.27.78-8 .1-.18.17-.32.05-.43-.12-.11-.25 0-.58.19a4.26 4.26 0 0 0-1.38 1.6c-.7 1.32-1 3.12-1 6.86a23.17 23.17 0 0 0 .05 2.35.92.92 0 0 0-.41 0 .8.8 0 0 0-.64.69 1 1 0 0 0 .64 1c.147.068.301.118.46.15a.32.32 0 0 0-.08.29.31.31 0 0 0 0 .11.34.34 0 0 0-.17.1c-.07.08-.13.23 0 .49a.5.5 0 0 0 .22.22.36.36 0 0 0-.1.36c.032.1.1.186.19.24a.4.4 0 0 0 0 .24.43.43 0 0 0 .27.42.5.5 0 0 0 0 .23l-.13-.06a.45.45 0 0 0-.46 0 .42.42 0 0 0-.07.65.81.81 0 0 0 .62.15.7.7 0 0 1-.14.21l-.28.31.23.32a.82.82 0 0 1 0 .91l-.05.06a.49.49 0 0 0-.47-.22.4.4 0 0 0-.3.31c-.07.25 0 .39.25.58a1 1 0 0 0 .55.25.61.61 0 0 1-.12.12l-.52.4.72.11h.21c.06.22.25.65.45.65s.29-.18.33-.23a.81.81 0 0 0 .15-.42h.21l.73-.1-.54-.43-.11-.1a1.13 1.13 0 0 0 .82-.55.46.46 0 0 0-.07-.43.47.47 0 0 0-.45-.15.36.36 0 0 0-.27.24l-.06-.06a.75.75 0 0 1 0-1c.21-.24.17-.35-.05-.56a.8.8 0 0 1-.19-.31h.11a.53.53 0 0 0 .54 0 .36.36 0 0 0 .14-.43.51.51 0 0 0-.38-.27.48.48 0 0 0 .27-.14.85.85 0 0 0 .16.15c.16.12.16.12.16.78s0 .84.19 1c.19.16.18.17.3.12a.22.22 0 0 0 .12-.23.33.33 0 0 1 .2-.12c.23.175.447.365.65.57.265.28.572.516.91.7h.25a1.36 1.36 0 0 0 .41-.12 2.79 2.79 0 0 0 1-.87 7.7 7.7 0 0 0 .85.52c.202.14.436.226.68.25.07.24.16.51.26.81.53 1.57.35 2-.21 2.35-.19.11-.29.13-.91.13-.62 0-.81 0-1.07.21a1.91 1.91 0 0 0-.54 1.1.25.25 0 0 0 .12.22c.13.07.3 0 .59-.13l.13-.08a.57.57 0 0 0 .38.21 1 1 0 0 0 .69-.18l.1-.07.07.07a.85.85 0 0 0 .56.2 1 1 0 0 0 .58-.19l.1-.07c.175.111.374.18.58.2.42.05.48 0 .73-.34a.85.85 0 0 0 .18-.74c0-.16-.06-.42-.06-.58a.94.94 0 0 1 0-.16c.096-.05.196-.09.3-.12a5.89 5.89 0 0 0 .63-.25c.16-.09.73-.68.73-.9 0-.22-.14-.22-.56-.26-.42-.04-.56-.13-.63-.28-.07-.15 0-.5.29-.93.17-.26.32-.51.46-.76l.28-.06c.15 0 .95-.38 1.61-.68a8 8 0 0 1 3.57-1v.28a3.21 3.21 0 0 0 .93 1.94 2.63 2.63 0 0 1 .79 2.23v1l-.16.15c-.15.14-.17.16-.81.2-.64.04-.78.06-1 .26a1.14 1.14 0 0 0-.43.69.35.35 0 0 0 0 .32.28.28 0 0 0 .23.09 1.28 1.28 0 0 0 .52-.21l.17-.11.1.09a.68.68 0 0 0 1 0 .63.63 0 0 0 .54.25c.29 0 .44 0 .59-.23l.14.09c.179.127.39.2.61.21a.56.56 0 0 0 .34-.11l.05.05c.15.11.36 0 .63-.16l.14-.09a.57.57 0 0 0 .4.24.85.85 0 0 0 .64-.21l.11-.09.12.09a.87.87 0 0 0 .76.18.64.64 0 0 0 .37-.27c.288.21.647.3 1 .25a.3.3 0 0 0 .23-.17.66.66 0 0 0-.13-.52 2 2 0 0 1-.47-1c0-.34.07-.5.53-.84.46-.34.71-.74.62-1a.37.37 0 0 0-.4-.25c-.2 0-.43-.21-.58-.54-.34-.77-.27-1.63.26-3.1a6.62 6.62 0 0 0 .62-2.89 3 3 0 0 0-.22-1.49 5.3 5.3 0 0 0-.54-1l-.21-.29.28-.23a2.1 2.1 0 0 0 .82-1.92 2.15 2.15 0 0 0-1.35-1.65 2.61 2.61 0 0 0-1.41-.22 11.61 11.61 0 0 0-1.62.14 10.87 10.87 0 0 1-1.57.13c-.76 0-.86 0-1.11-.15-.25-.15-.28-.17-.33-.5a.39.39 0 0 0-.24-.31c-.21-.07-.61.3-.78.54a1.55 1.55 0 0 1-.15-.31c-.07-.2-.07-.43.37-.65l.61-.29-.46-.28a1.13 1.13 0 0 0-.86-.11 1.16 1.16 0 0 0-.73.5l-.05.08-.16-.15a.74.74 0 0 1-.24-.7.76.76 0 0 1 .53-.53.63.63 0 0 1 .47 0 .18.18 0 0 1 .09.11c.08.29.28.26.32.25.27-.05.43-.53.38-.89v-.12c.392.08.745.292 1 .6a1.13 1.13 0 0 1 0 1.12l-.39.64.62-.12a1.64 1.64 0 0 0 1-.65 1.53 1.53 0 0 0 .07-1.3c.253.108.459.303.58.55.117.16.14.37.06.55a1.79 1.79 0 0 1-.22.49c-.1.13-.18.24-.12.36a.23.23 0 0 0 .22.11 1.6 1.6 0 0 0 .88-.4c.11-.132.197-.28.26-.44.234.335.56.596.94.75.45.19.62.21.7.07.08-.14-.08-.28-.14-.33a2.09 2.09 0 0 1-.26-.61c.22.16.58.45 1 .84a2.4 2.4 0 0 0 1.75.81 1.14 1.14 0 0 0 1-.52 1 1 0 0 0 .31-1.09zM34.4 28a.66.66 0 0 0 .26-.07.2.2 0 0 0 .08.06 1 1 0 0 0-.26 0l-.08.01zm20.85 6a2.2 2.2 0 0 0-1.2.62 2.55 2.55 0 0 0-.12-.53c-.14-.43-.1-.66.45-1.31.08-.09.47-.56.47-.77a.3.3 0 0 0-.08-.23c-.09-.09-.23-.09-.45-.09s-.3 0-.42-.14-.25-.37.05-.75l.2-.25.19.12c1.55 1 1.55 1 1.62 2.08.07 1.08.04 1.11-.71 1.25z" fill="#FFCE54"/></g>
  </symbol>
  <symbol id="flag-thailand" viewBox="0 0 71 48">
    <g fill-rule="nonzero" fill="none"><rect fill="#ED5565" x=".25" y=".07" width="70" height="47" rx="6.36"/><path fill="#FFF" d="M.25 9.57h70v28h-70z"/><path fill="#4758A9" d="M.25 13.57h70v20h-70z"/></g>
  </symbol>
  <symbol id="flag-united-kingdom" viewBox="0 0 71 48">
    <g fill-rule="nonzero" fill="none"><path d="M30.57.68h-3.13V15l-25-12.5a6.62 6.62 0 0 0-2 4.24l19.2 9.6h-7L.41 10.23V12l8.73 4.36H.41v3.13H30.6L30.57.68zM68.23 45.89a6.62 6.62 0 0 0 2.12-4.19L50.93 32h7l12.46 6.23v-1.75l-9-4.48h9v-3.13H40v18.79h3.13V33.34l25.1 12.55zM43.1.68H40v18.79h30.42v-3.13h-9l9-4.48V7.29v-.67l-19.43 9.71h-7L69.36 3.64a6.68 6.68 0 0 0-1-1.23L43.1 15V.68zM.39 28.86V32h8.73L.39 36.36V41.59l19.2-9.6h7L1.41 44.58a6.66 6.66 0 0 0 1 1.24l25-12.49v14.32h3.13V28.86H.39z" fill="#FFF"/><path fill="#EC5565" d="M70.39 28.86v-9.39H39.97V.68h-9.4v18.79H.39v9.39h30.18v18.79h9.4V28.86z"/><path d="M19.61 16.34L.41 6.74V10.22l12.23 6.11 6.97.01zM50.93 16.34l19.43-9.71a6.6 6.6 0 0 0-1.06-3L43.93 16.32l7 .02zM50.93 32l19.42 9.71a6.72 6.72 0 0 0 0-.7v-2.78L57.93 32h-7zM19.61 32L.41 41.6a6.6 6.6 0 0 0 1 3L26.62 32h-7.01z" fill="#EC5565"/><path d="M43.1 15L68.26 2.42A6.61 6.61 0 0 0 64.42.68H43.1V15zM70.39 36.47v-4.48h-8.96zM70.39 16.34v-4.48l-8.96 4.48zM2.46 45.82a6.61 6.61 0 0 0 4.57 1.83h20.41V33.33L2.46 45.82zM43.1 33.33v14.32h20.65a6.61 6.61 0 0 0 4.48-1.75L43.1 33.33zM27.44.68H6.36A6.61 6.61 0 0 0 2.44 2.5l25 12.5V.68zM.39 31.99v4.36l8.72-4.36zM.39 11.97v4.37h8.72z" fill="#4658A9"/></g>
  </symbol>
  <symbol id="flag-usa" viewBox="0 0 71 48">
    <g fill-rule="nonzero" fill="none"><path d="M7 47.61h57.77A6.64 6.64 0 0 0 70.16 44H1.6A6.64 6.64 0 0 0 7 47.61z" fill="#ED5565"/><path d="M.91 40.38v1.34a6.59 6.59 0 0 0 .68 2.27h68.55a6.59 6.59 0 0 0 .68-2.27v-1.34H.91z" fill="#FFFFFF"/><path fill="#ED5565" d="M.91 36.77h69.92v3.61H.91z"/><path fill="#FFF" d="M.91 33.16h69.92v3.61H.91z"/><path fill="#ED5565" d="M.91 29.55h69.92v3.61H.91z"/><path fill="#FFF" d="M.91 25.94h69.92v3.61H.91z"/><path fill="#ED5565" d="M.91 22.33h69.92v3.61H.91z"/><path fill="#FFF" d="M.91 18.72h69.92v3.61H.91z"/><path fill="#ED5565" d="M.91 15.11h69.92v3.61H.91z"/><path fill="#FFF" d="M.91 11.49h69.92v3.61H.91z"/><path fill="#ED5565" d="M.91 7.88h69.92v3.61H.91z"/><path d="M70.83 7.88V6.54a6.59 6.59 0 0 0-.68-2.28H1.6a6.59 6.59 0 0 0-.68 2.28v1.34h69.91z" fill="#FFFFFF"/><path d="M64.76.66H7a6.64 6.64 0 0 0-5.39 3.61h68.55a6.64 6.64 0 0 0-5.4-3.61z" fill="#ED5565"/><path d="M34.09 25.94V.66H7A6.64 6.64 0 0 0 .93 6.55v19.39h33.16z" fill="#4A89DC"/><path fill="#FFF" d="M5.02 3.72l-.27.84h-.88l.71.51-.27.84.71-.52.71.52-.27-.84.71-.51h-.88zM5.02 7.96l-.27.84h-.88l.71.52-.27.83.71-.51.71.51-.27-.83.71-.52h-.88zM5.02 12.2l-.27.84h-.88l.71.52-.27.84.71-.52.71.52-.27-.84.71-.52h-.88zM5.02 16.45l-.27.83h-.88l.71.52-.27.84.71-.52.71.52-.27-.84.71-.52h-.88zM5.29 21.52l-.27-.83-.27.83h-.88l.71.52-.27.84.71-.52.71.52-.27-.84.71-.52zM7.51 5.84l-.27.84h-.88l.71.52-.27.83.71-.52.72.52-.27-.83.71-.52h-.88zM7.51 10.08l-.27.84h-.88l.71.52-.27.83.71-.51.72.51-.27-.83.71-.52h-.88zM7.51 14.33l-.27.83h-.88l.71.52-.27.84.71-.52.72.52-.27-.84.71-.52h-.88zM7.79 19.4l-.28-.83-.27.83h-.88l.71.52-.27.84.71-.52.72.52-.27-.84.71-.52zM10.01 3.72l-.27.84h-.88l.71.51-.27.84.71-.52.71.52-.27-.84.71-.51h-.88zM10.01 7.96l-.27.84h-.88l.71.52-.27.83.71-.51.71.51-.27-.83.71-.52h-.88zM10.01 12.2l-.27.84h-.88l.71.52-.27.84.71-.52.71.52-.27-.84.71-.52h-.88zM10.01 16.45l-.27.83h-.88l.71.52-.27.84.71-.52.71.52-.27-.84.71-.52h-.88zM10.28 21.52l-.27-.83-.27.83h-.88l.71.52-.27.84.71-.52.71.52-.27-.84.71-.52zM12.5 5.84l-.27.84h-.88l.71.52-.27.83.71-.52.72.52-.27-.83.71-.52h-.88zM12.5 10.08l-.27.84h-.88l.71.52-.27.83.71-.51.72.51-.27-.83.71-.52h-.88zM12.5 14.33l-.27.83h-.88l.71.52-.27.84.71-.52.72.52-.27-.84.71-.52h-.88zM12.78 19.4l-.28-.83-.27.83h-.88l.71.52-.27.84.71-.52.72.52-.27-.84.71-.52zM15 3.72l-.27.84h-.88l.71.51-.27.84.71-.52.71.52-.27-.84.71-.51h-.88zM15 7.96l-.27.84h-.88l.71.52-.27.83.71-.51.71.51-.27-.83.71-.52h-.88zM15 12.2l-.27.84h-.88l.71.52-.27.84.71-.52.71.52-.27-.84.71-.52h-.88zM15 16.45l-.27.83h-.88l.71.52-.27.84.71-.52.71.52-.27-.84.71-.52h-.88zM15.27 21.52l-.27-.83-.27.83h-.88l.71.52-.27.84.71-.52.71.52-.27-.84.71-.52zM17.49 5.84l-.27.84h-.88l.71.52-.27.83.71-.52.72.52-.28-.83.72-.52h-.88zM17.49 10.08l-.27.84h-.88l.71.52-.27.83.71-.51.72.51-.28-.83.72-.52h-.88zM17.49 14.33l-.27.83h-.88l.71.52-.27.84.71-.52.72.52-.28-.84.72-.52h-.88zM17.77 19.4l-.28-.83-.27.83h-.88l.71.52-.27.84.71-.52.72.52-.28-.84.72-.52zM19.99 3.72l-.27.84h-.88l.71.51-.27.84.71-.52.71.52-.27-.84.71-.51h-.88zM19.99 7.96l-.27.84h-.88l.71.52-.27.83.71-.51.71.51-.27-.83.71-.52h-.88zM19.99 12.2l-.27.84h-.88l.71.52-.27.84.71-.52.71.52-.27-.84.71-.52h-.88zM19.99 16.45l-.27.83h-.88l.71.52-.27.84.71-.52.71.52-.27-.84.71-.52h-.88zM20.26 21.52l-.27-.83-.27.83h-.88l.71.52-.27.84.71-.52.71.52-.27-.84.71-.52zM22.48 5.84l-.27.84h-.88l.71.52-.27.83.71-.52.72.52-.28-.83.72-.52h-.88zM22.48 10.08l-.27.84h-.88l.71.52-.27.83.71-.51.72.51-.28-.83.72-.52h-.88zM22.48 14.33l-.27.83h-.88l.71.52-.27.84.71-.52.72.52-.28-.84.72-.52h-.88zM22.76 19.4l-.28-.83-.27.83h-.88l.71.52-.27.84.71-.52.72.52-.28-.84.72-.52zM24.98 3.72l-.27.84h-.88l.71.51-.27.84.71-.52.71.52-.27-.84.71-.51h-.88zM24.98 7.96l-.27.84h-.88l.71.52-.27.83.71-.51.71.51-.27-.83.71-.52h-.88zM24.98 12.2l-.27.84h-.88l.71.52-.27.84.71-.52.71.52-.27-.84.71-.52h-.88zM24.98 16.45l-.27.83h-.88l.71.52-.27.84.71-.52.71.52-.27-.84.71-.52h-.88zM25.25 21.52l-.27-.83-.27.83h-.88l.71.52-.27.84.71-.52.71.52-.27-.84.71-.52zM27.47 5.84l-.27.84h-.88l.71.52-.27.83.71-.52.72.52-.28-.83.72-.52h-.88zM27.47 10.08l-.27.84h-.88l.71.52-.27.83.71-.51.72.51-.28-.83.72-.52h-.88zM27.47 14.33l-.27.83h-.88l.71.52-.27.84.71-.52.72.52-.28-.84.72-.52h-.88zM27.75 19.4l-.28-.83-.27.83h-.88l.71.52-.27.84.71-.52.72.52-.28-.84.72-.52zM29.53 5.07l-.27.84.71-.52.71.52-.27-.84.71-.51h-.88l-.27-.84-.27.84h-.88zM29.97 7.96l-.27.84h-.88l.71.52-.27.83.71-.51.71.51-.27-.83.71-.52h-.88zM29.97 12.2l-.27.84h-.88l.71.52-.27.84.71-.52.71.52-.27-.84.71-.52h-.88zM29.97 16.45l-.27.83h-.88l.71.52-.27.84.71-.52.71.52-.27-.84.71-.52h-.88zM30.24 21.52l-.27-.83-.27.83h-.88l.71.52-.27.84.71-.52.71.52-.27-.84.71-.52z"/></g>
  </symbol>
  <symbol id="icon-location" viewBox="0 0 16 21">
    <path d="M8 5C6.385 5 5 6.385 5 8s1.385 3 3 3 3-1.385 3-3-1.385-3-3-3zm0 4.038A1.034 1.034 0 016.962 8c0-.577.461-1.038 1.038-1.038S9.038 7.423 9.038 8 8.577 9.038 8 9.038z" fill="#FFD74B"/><path d="M8.098 0C3.69 0 0 3.5 0 7.9c0 5.1 3.895 7.3 4.716 8.3 2.05 2.4 2.152 4.8 3.28 4.8 1.128 0 1.23-2.4 3.28-4.8.82-1 4.716-3.2 4.716-8.3.205-4.4-3.486-7.9-7.894-7.9zm0 13.1c-2.972 0-5.433-2.4-5.433-5.3s2.46-5.3 5.433-5.3 5.434 2.4 5.434 5.3-2.46 5.3-5.434 5.3z" fill="#FFD74B"/>
  </symbol>
  <symbol id="icon-dots" viewBox="0 0 27 5">
    <path fill="#192144" d="M2.5 5a2.5 2.5 0 100-5 2.5 2.5 0 000 5zM13.5 5a2.5 2.5 0 100-5 2.5 2.5 0 000 5zM24.5 5a2.5 2.5 0 100-5 2.5 2.5 0 000 5z"/>
  </symbol>
  <symbol id="icon-minus" viewBox="0 0 14 2">
    <path d="M0 0h14v2H0z"/>
  </symbol>
  <symbol id="icon-plus" viewBox="0 0 14 14">
    <path d="M8 6V0H6v6H0v2h6v6h2V8h6V6z"/>
  </symbol>
  <symbol id="month-arrow-left" viewBox="0 0 18 34">
    <path d="M3.6 17l14-14.4c.6-.6.6-1.6 0-2.1-.6-.6-1.5-.6-2.1 0L.4 15.9c-.6.6-.6 1.6 0 2.1l15.1 15.5c.3.3.7.4 1 .4s.8-.1 1-.4c.6-.6.6-1.6 0-2.1L3.6 17z"/>
  </symbol>
  <symbol id="month-arrow-right" viewBox="0 0 18 34">
    <path d="M14.4 17L.4 2.6C-.1 2-.1 1 .4.4 1-.2 1.9-.2 2.5.4l15.1 15.5c.6.6.6 1.6 0 2.1L2.5 33.6c-.3.3-.7.4-1 .4s-.8-.1-1-.4c-.6-.6-.6-1.6 0-2.1L14.4 17z"/>
  </symbol>
  <symbol id="icon-close" viewBox="0 0 9 9">
    <path d="M8 1L1 8" stroke-linecap="round" stroke-linejoin="round"/>
    <path d="M1 1L8 8" stroke-linecap="round" stroke-linejoin="round"/>
  </symbol>
  <symbol id="level-percent-28" viewBox="0 0 60 60">
    <circle r="28" cx="50%" cy="50%" fill="none" stroke="#FF8D30" stroke-width="4" stroke-dashoffset="44px"></circle>
  </symbol>
  <symbol id="level-percent" viewBox="0 0 100 100">
    <circle r="48" cx="50%" cy="50%" fill="none" stroke="#ff8d30"></circle>
  </symbol>
  <symbol id="icon-plane" viewBox="0 0 19 21">
    <path d="M17.622.016c-.823.185-1.649.37-1.956.88l-2.378 4.483L.518 8.252 0 9.685l9.772.874-1.658 3.882-3.706.833-.93 1.526 2.673.274.305 1.248c.137.442.616.738 1.025.646l1.236-.278L10.149 21l.93-1.526-.914-3.742 2.683-3.236 5.12 8.501L19 19.89 15.85 6.996l2.893-4.16c.31-.51.108-1.34-.096-2.175-.101-.413-.616-.737-1.025-.645z" fill="#161c35"/>
  </symbol>
  <symbol id="icon-bus" viewBox="0 0 19 21">
    <path d="M4.75 14.25c0-.414-.155-.768-.464-1.06a1.57 1.57 0 00-1.12-.44c-.436 0-.81.146-1.119.44-.31.292-.464.646-.464 1.06 0 .414.155.768.464 1.06.31.293.683.44 1.12.44.437 0 .81-.146 1.12-.44.308-.292.463-.646.463-1.06zm12.667 0c0-.414-.155-.768-.464-1.06a1.57 1.57 0 00-1.12-.44c-.437 0-.81.146-1.12.44-.308.292-.463.646-.463 1.06 0 .414.155.768.464 1.06.31.293.682.44 1.12.44.436 0 .81-.146 1.119-.44.31-.292.464-.646.464-1.06zm-.57-4.64l-.89-4.5a.788.788 0 00-.78-.61H3.823a.788.788 0 00-.779.61l-.89 4.5a.713.713 0 00.173.62c.156.18.358.27.606.27h13.136c.248 0 .45-.09.606-.27a.713.713 0 00.174-.62zm-2.795-7.172a.529.529 0 00-.173-.399.59.59 0 00-.42-.164H5.541a.59.59 0 00-.42.164.528.528 0 00-.174.398c0 .157.058.29.173.399a.59.59 0 00.42.164h7.917a.59.59 0 00.421-.164.529.529 0 00.173-.398zM19 10.934V18h-1.583v1.5c0 .414-.155.768-.464 1.06a1.57 1.57 0 01-1.12.44c-.437 0-.81-.146-1.12-.44a1.408 1.408 0 01-.463-1.06V18h-9.5v1.5c0 .414-.155.768-.464 1.06a1.57 1.57 0 01-1.12.44 1.57 1.57 0 01-1.119-.44 1.408 1.408 0 01-.464-1.06V18H0v-7.066c0-.875.103-1.746.31-2.614L1.582 3c.075-.61.477-1.145 1.206-1.605C3.52.934 4.468.585 5.634.352 6.801.117 8.09 0 9.5 0c1.41 0 2.699.117 3.866.352 1.166.234 2.115.582 2.845 1.043.73.46 1.132.996 1.206 1.605l1.298 5.32c.19.797.285 1.668.285 2.614z" fill="#161c35"/>
  </symbol>
  <symbol id="icon-bicycle" viewBox="0 0 24 21">
    <g>
      <path d="M19.071 21a4.857 4.857 0 01-2.738-.848 5.01 5.01 0 01-1.815-2.258 5.13 5.13 0 01-.28-2.907c.19-.976.659-1.872 1.348-2.576a4.898 4.898 0 012.524-1.377 4.834 4.834 0 012.847.286c.9.381 1.67 1.026 2.212 1.854a5.107 5.107 0 01-.615 6.35A4.883 4.883 0 0119.071 21zm0-8.313c-.636 0-1.257.193-1.786.554-.528.36-.94.873-1.183 1.472-.244.6-.307 1.26-.183 1.896.124.636.43 1.221.88 1.68.449.459 1.021.771 1.645.898.623.127 1.27.062 1.857-.187a3.229 3.229 0 001.443-1.208 3.33 3.33 0 00-.401-4.142 3.185 3.185 0 00-2.272-.963zM4.928 21a4.857 4.857 0 01-2.738-.848 5.01 5.01 0 01-1.815-2.258 5.129 5.129 0 01-.28-2.907c.19-.976.66-1.872 1.349-2.576a4.898 4.898 0 012.523-1.377 4.834 4.834 0 012.847.286c.901.381 1.67 1.026 2.212 1.854a5.107 5.107 0 01-.614 6.35A4.883 4.883 0 014.928 21zm0-8.313c-.635 0-1.257.193-1.785.554-.529.36-.94.873-1.184 1.472-.243.6-.307 1.26-.183 1.896.124.636.43 1.221.88 1.68.45.459 1.022.771 1.645.898.624.127 1.27.062 1.857-.187a3.23 3.23 0 001.443-1.208 3.33 3.33 0 00-.4-4.142 3.185 3.185 0 00-2.273-.963zM15.428 3.5a1.678 1.678 0 001.215-.513c.16-.163.286-.357.372-.57.085-.213.128-.442.127-.672a1.752 1.752 0 00-.493-1.238A1.66 1.66 0 0015.439 0a1.684 1.684 0 00-1.214.509 1.752 1.752 0 00-.506 1.236 1.782 1.782 0 00.498 1.239 1.712 1.712 0 001.21.516z" fill="#161C35"/>
      <path d="M17.976 7h-2.344a.21.21 0 01-.188-.114l-1.7-3.18a1.685 1.685 0 00-.505-.597 1.642 1.642 0 00-1.482-.238 1.655 1.655 0 00-.659.41l-3.742 3.85a1.8 1.8 0 00-.499 1.225c0 .952.675 1.291.991 1.482 1.527.898 2.602 1.555 3.192 1.92a.216.216 0 01.103.186v3.78c0 .471.355.875.816.899a.843.843 0 00.632-.24.874.874 0 00.266-.633v-4.703a.889.889 0 00-.356-.711l-1.983-1.455a.218.218 0 01-.088-.157.222.222 0 01.057-.171l2.25-2.45a.215.215 0 01.183-.068.211.211 0 01.161.111l1.17 2.154a.844.844 0 00.75.45H18a.84.84 0 00.621-.27.878.878 0 00-.645-1.48z" fill="#161C35"/>
    </g>
  </symbol>
  <symbol id="icon-run" viewBox="0 0 20 21">
    <path d="M15.35 4.349a2.184 2.184 0 002.193-2.175C17.543.974 16.561 0 15.35 0a2.184 2.184 0 00-2.193 2.174c0 1.201.982 2.175 2.193 2.175zM14.01 9.75c.25.373.612.659 1.033.82.421.162.883.19 1.321.083l3.636-.9-.53-2.11-3.635.901-1.512-2.247a2.205 2.205 0 00-1.395-.928L8.711 4.53a2.207 2.207 0 00-1.394.179c-.432.21-.782.555-.997.981L4.502 9.297l1.961.973 1.818-3.607 2.157.429-5.576 9.216H0v2.174h4.862a2.21 2.21 0 001.88-1.056l2.103-3.474 5.667 1.124L16.503 21l2.08-.688-1.99-5.923a2.179 2.179 0 00-.63-.943 2.207 2.207 0 00-1.022-.503l-3.332-.66 1.943-3.211.457.679z" fill="#161C35"/>
  </symbol>
  <symbol id="icon-phone" viewBox="0 0 16 15">
    <path fill-rule="evenodd" clip-rule="evenodd" d="M8 0C5.15 0 2.293.478 1.257 1.431.397 2.221.11 3.62.013 4.503c0 0-.013.088-.013.125 0 .347.3.625.667.625.043 0 1.646-.122 2.613-.197.023-.003.047-.006.07-.012.36-.01.65-.285.65-.625l.003-1.231c0-.382.33-.688.737-.688h6.52c.407 0 .737.306.737.688L12 4.418c0 .341.29.616.65.626.023.006.047.01.07.012.967.075 2.57.197 2.613.197.367 0 .667-.278.667-.625 0-.037-.013-.125-.013-.125-.097-.884-.383-2.281-1.244-3.072C13.707.478 10.85 0 8 0zm0 8.125c-.737 0-1.333.56-1.333 1.25s.596 1.25 1.333 1.25 1.333-.56 1.333-1.25S8.737 8.125 8 8.125zM7 5.312v-.78c0-.432-.373-.782-.833-.782-.46 0-.834.35-.834.781v.781L.837 9.816c-.31.284-.504.68-.504 1.118v1.254c0 .69.597 1.25 1.334 1.25H2v.78c0 .432.373.782.833.782.46 0 .834-.35.834-.781v-.781h8.666v.78c0 .432.373.782.834.782.46 0 .833-.35.833-.781v-.781h.333c.737 0 1.333-.56 1.333-1.25v-1.254c0-.437-.193-.834-.503-1.118l-4.496-4.504v-.78c0-.432-.374-.782-.834-.782-.46 0-.833.35-.833.781v.781H7zm1 1.563c1.473 0 2.667 1.119 2.667 2.5s-1.194 2.5-2.667 2.5c-1.473 0-2.667-1.119-2.667-2.5s1.194-2.5 2.667-2.5z"/>
  </symbol>
  <symbol id="icon-email" viewBox="0 0 19 13">
    <path fill-rule="evenodd" clip-rule="evenodd" d="M16.662 10.625L12.16 6.5l4.502-4.125-.614-.656-6.548 6-6.548-6-.614.656L6.84 6.5l-4.502 4.125.614.656L7.505 7.11 9.5 8.938l1.995-1.829 4.553 4.172.614-.656zM1.521 0C.683 0 0 .727 0 1.62v9.76C0 12.275.676 13 1.523 13h15.954c.841 0 1.523-.727 1.523-1.62V1.62C19 .725 18.324 0 17.477 0H1.523z"/>
  </symbol>
  <symbol id="icon-fb" viewBox="0 0 11 21">
    <path d="M7.8 21H2.2v-9.8H0V6.4h2.1c-.1-2.2.3-3.8 1.3-4.9C4.2.6 5.5.1 7.1 0H11v4.7H7.9c-.1.2-.2.8-.2 1.7H11v4.8H7.8V21zm-4.4-1.1h3.1v-9.8h3.2V7.5H6.5v-.6c0-1.5 0-2.9.8-3.4l.2-.1h2.3V1.1H7.1c-1.2.1-2.2.5-2.8 1.2-.8.9-1.1 2.5-.9 4.6l.1.6H1.2v2.6h2.2v9.8z" fill="#192144"/>
  </symbol>
  <symbol id="icon-insta" viewBox="0 0 23 23">
    <path d="M17 1.5c2.5 0 4.5 2 4.5 4.5v11c0 2.5-2 4.5-4.5 4.5H6c-2.5 0-4.5-2-4.5-4.5V6c0-2.5 2-4.5 4.5-4.5h11zM17 0H6C2.7 0 0 2.7 0 6v11c0 3.3 2.7 6 6 6h11c3.3 0 6-2.7 6-6V6c0-3.3-2.7-6-6-6z" fill="#192144"/>
    <path d="M11.5 7.1c2.4 0 4.4 2 4.4 4.4 0 2.4-2 4.4-4.4 4.4-2.4 0-4.4-2-4.4-4.4 0-2.4 2-4.4 4.4-4.4zm0-1.5c-3.3 0-5.9 2.7-5.9 5.9s2.7 5.9 5.9 5.9 5.9-2.7 5.9-5.9-2.6-5.9-5.9-5.9zM17.6 6.7a1.3 1.3 0 100-2.6 1.3 1.3 0 000 2.6z" fill="#192144"/>
  </symbol>
  <symbol id="icon-vk" viewBox="0 0 30 16">
    <path d="M23.884 16c-.4 0-1.2-.101-2.1-.608-.6-.405-1.2-1.012-1.8-1.519-.4-.405-1.2-1.215-1.4-1.215-.3.101-.499.912-.499 1.62 0 .102 0 .81-.5 1.216-.4.405-1.1.506-1.2.506h-1.9c-.999 0-4.398-.203-7.397-3.038C3.388 9.519.289 3.038.089 2.734c-.1-.506-.2-1.215.2-1.62s1.1-.506 1.4-.506h4.199c.1 0 .6.1 1 .303.4.203.6.71.6.71s.6 1.417 1.5 2.733c1.299 2.026 1.899 2.532 2.099 2.633.2-.405.3-1.721.2-2.936 0-.507-.1-1.114-.3-1.317-.1-.101-.4-.304-.8-.304l-.7-.607c-.1-.71.6-1.215 1.1-1.418.7-.304 1.8-.405 3.1-.405h.699c1.2 0 1.6.101 2.1.203 1.699.405 1.599 1.721 1.599 3.341V5.671c0 .405 0 1.013.1 1.316.2-.1.9-.709 2.1-2.531.8-1.215 1.4-2.532 1.499-2.836.2-.405.6-.911 1.6-.911H28.083c1 0 1.6.304 1.799.911.3.608.2 1.722-2.4 4.658-.4.406-.7.81-1 1.114-.599.71-1.199 1.418-1.199 1.62.1.102.7.608 1.3 1.115 1.5 1.215 2.5 2.329 3 3.139.499.81.399 1.316.299 1.721-.4.912-1.6 1.013-1.9 1.013h-4.099zm-5.3-4.962c.9 0 1.7.81 2.5 1.62.5.507 1 1.013 1.5 1.317.7.405 1.3.405 1.4.405h3.899c.2 0 .4-.102.5-.102 0 0 0-.1-.1-.202-.4-.709-1.4-1.722-2.7-2.734-1.2-1.013-1.8-1.52-1.9-2.228-.1-.81.5-1.418 1.6-2.734.3-.304.6-.71 1-1.114 1.6-1.823 2-2.633 2.1-3.038H23.082c-.2.405-.8 1.823-1.599 3.038-1.9 2.835-2.8 3.24-3.399 3.24-.2 0-.4 0-.6-.1-1-.609-1-1.824-.9-2.836v-.405-1.722c.1-1.721 0-1.721-.4-1.823-.4-.101-.7-.101-1.9-.202h-.699c-.6 0-1.3 0-1.9.101l.3.304c.6.709.6 2.025.6 2.228.1 1.62.1 3.848-1 4.354-.2.101-.4.101-.6.101-.9 0-1.899-.911-3.398-3.341-.8-1.216-1.5-2.735-1.5-2.836l-.1-.101c-.1 0-.2-.101-.3-.101H1.689h-.1c.6 1.215 3.4 6.683 6.498 9.62 2.7 2.531 5.799 2.633 6.399 2.633h1.9s.2-.102.3-.102v-.1c0-.305 0-2.634 1.599-3.039.1-.101.2-.101.3-.101z" fill="#192144"/>
  </symbol>
  <symbol id="logo-academy" viewBox="0 0 27 34">
    <path d="M13.6 0h-.2L0 1.4V26l13.5 8L27 26V1.4L13.6 0zm5.7 16.8l-.9.5-5-3v1.4l3.8 2.3-.8.5-3-1.8v1.4l1.9 1.1-1.8 1.1L2 13.6l11.4-6.8L25 13.5l-4.5 2.6-7.1-4.2v1.4l5.9 3.5zM1.9 15.1l11.4 6.8v1l-8-4.7v1.4l8 4.8v1.1l-8-4.7v1.4l8 4.8 8.2-4.9V17l3.4-2v10l-11.6 6.9-11.4-7v-9.8zm0-3v-9l11.6-1.2 11.6 1.2v9L13.5 5.3v-.1h-.2v.1L1.9 12.1z" fill="#192144"/>
  </symbol>
</svg>
